<ttFont>
<head>
    <!-- Most of this table will be recalculated by the compiler -->
    <tableVersion value="1.0"/>
    <fontRevision value="1.20099"/>
    <checkSumAdjustment value="0x1b13930c"/>
    <magicNumber value="0x5f0f3cf5"/>
    <flags value="00000000 00000011"/>
    <unitsPerEm value="1000"/>
    <created value="Thu Jun 19 21:40:05 2014"/>
    <modified value="Thu Jun 19 19:40:11 2014"/>
    <xMin value="-587"/>
    <yMin value="-474"/>
    <xMax value="1947"/>
    <yMax value="945"/>
    <macStyle value="00000000 00000000"/>
    <lowestRecPPEM value="3"/>
    <fontDirectionHint value="2"/>
    <indexToLocFormat value="0"/>
    <glyphDataFormat value="0"/>
  </head>
          <CharString index="0">
            16 -6 23 -9 11 vhcurveto
            return
          </CharString>
          <CharString index="1">
            rmoveto
            -30 -30 -51 -20 -52 hhcurveto
            -86 -54 46 66 -24 hvcurveto
            446 callgsubr
            return
          </CharString>
          <CharString index="2">
            550 50 221 56 hstemhm
            56 53 11 53 hintmask 11010000
            152 callgsubr
            -81 callgsubr
            145 -71 callsubr
            hintmask 11110000
            -146 hlineto
            -38 47 -10 return
          </CharString>
          <CharString index="3">
            -10 22 -18 31 vhcurveto
            return
          </CharString>
          <CharString index="4">
            rmoveto
            -107 callsubr
            return
          </CharString>
          <CharString index="5">
            -12 -41 -34 -13 253 callsubr
            hvcurveto
            return
          </CharString>
          <CharString index="6">
            -88 callsubr
            -22 13 -30 20 -33 hvcurveto
            61 callsubr
            return
          </CharString>
          <CharString index="7">
            -52 -48 -1 -2 -31 hvcurveto
            -99 callgsubr
            return
          </CharString>
          <CharString index="8">
            33 -18 -45 68 -81 164 callgsubr
            -119 110 -104 89 -68 hvcurveto
            -61 callsubr
            56 44 -49 -42 18 vhcurveto
            -7 -21 -62 callgsubr
            return
          </CharString>
          <CharString index="9">
            hlineto
            -107 callsubr
            return
          </CharString>
          <CharString index="10">
            -104 callsubr
            570 return
          </CharString>
          <CharString index="11">
            235 81 callsubr
            return
          </CharString>
          <CharString index="12">
            191 callgsubr
            -21 -37 303 callgsubr
            50 -73 callgsubr
            return
          </CharString>
          <CharString index="13">
            -81 callsubr
            56 -53 25 11 13 4 10 7 vhcurveto
            10 15 4 35 return
          </CharString>
          <CharString index="14">
            hhcurveto
            -41 -40 7 12 -31 hvcurveto
            15 30 6 38 41 9 callsubr
            return
          </CharString>
          <CharString index="15">
            66 callgsubr
            -394 vlineto
            -142 -68 -64 -110 -92 -66 56 151 vhcurveto
            1 395 50 -72 callsubr
            -186 218 callsubr
            -402 vlineto
            -133 46 -110 162 168 64 110 149 vhcurveto
            388 vlineto
            102 callgsubr
            return
          </CharString>
          <CharString index="16">
            rmoveto
            -11 22 -24 21 -23 1 -164 -124 rcurveline
            6 -10 8 -10 12 -6 rrcurveto
            return
          </CharString>
          <CharString index="17">
            -157 vlineto
            -104 callsubr
            return
          </CharString>
          <CharString index="18">
            74 callgsubr
            51 -42 40 rrcurveto
            15 20 9 24 28 vvcurveto
            36 -17 19 -19 -19 -49 -19 -37 -11 5 -20 17 -21 vhcurveto
            -13 -19 -33 -13 -45 hhcurveto
            return
          </CharString>
          <CharString index="19">
            -89 callgsubr
            -39 -27 -22 -36 return
          </CharString>
          <CharString index="20">
            hlineto
            -58 callsubr
            return
          </CharString>
          <CharString index="21">
            hmoveto
            -107 callsubr
            return
          </CharString>
          <CharString index="22">
            -12 -41 -34 -13 -11 35 -41 11 return
          </CharString>
          <CharString index="23">
            82 callgsubr
            -14 callgsubr
            return
          </CharString>
          <CharString index="24">
            vhcurveto
            366 -96 callgsubr
            return
          </CharString>
          <CharString index="25">
            rmoveto
            -64 -44 -60 -32 -51 hhcurveto
            -56 -46 38 72 return
          </CharString>
          <CharString index="26">
            -82 callgsubr
            -38 return
          </CharString>
          <CharString index="27">
            18 -38 37 -37 19 -2 13 -1 16 15 535 callsubr
            -9 50 -4 24 return
          </CharString>
          <CharString index="28">
            hlineto
            -14 -19 -9 -24 -23 callsubr
            34 31 vvcurveto
            41 32 27 37 5 vhcurveto
            27 hlineto
            56 -8 17 -54 -37 vvcurveto
            return
          </CharString>
          <CharString index="29">
            -50 callsubr
            -24 -10 -21 vhcurveto
            return
          </CharString>
          <CharString index="30">
            hvcurveto
            -90 callsubr
            return
          </CharString>
          <CharString index="31">
            rmoveto
            -188 -103 -159 -221 5 hvcurveto
            -200 5 95 -125 158 hhcurveto
            198 96 158 215 -3 hvcurveto
            284 -4 -161 48 -98 hhcurveto
            -11 -46 rmoveto
            156 1 60 -138 -172 vvcurveto
            -173 -66 -130 -151 -1 vhcurveto
            -156 -1 -59 138 165 vvcurveto
            160 callgsubr
            return
          </CharString>
          <CharString index="32">
            -40 10 -55 40 66 vvcurveto
            53 35 39 42 37 4 -30 -17 -33 -16 -14 -28 -20 vhcurveto
            3 -8 8 -11 7 -4 rrcurveto
            return
          </CharString>
          <CharString index="33">
            vvcurveto
            -84 63 -84 118 38 37 9 17 29 vhcurveto
            33 -46 19 -47 22 -44 21 8 19 19 9 12 -17 31 -43 52 -37 36 rrcurveto
            19 18 11 24 27 vvcurveto
            38 -22 16 -16 -19 -47 -22 -34 -13 7 -22 8 -13 vhcurveto
            -11 -23 -34 -4 -28 hhcurveto
            -65 -52 41 58 62 return
          </CharString>
          <CharString index="34">
            82 61 45 69 51 45 -25 -29 31 return
          </CharString>
          <CharString index="35">
            505 callgsubr
            28 1 10 rlinecurve
            return
          </CharString>
          <CharString index="36">
            vlineto
            -107 callsubr
            return
          </CharString>
          <CharString index="37">
            155 callgsubr
            -28 -1 -10 rlinecurve
            return
          </CharString>
          <CharString index="38">
            -28 -52 callsubr
            return
          </CharString>
          <CharString index="39">
            244 rmoveto
            -84 callsubr
            return
          </CharString>
          <CharString index="40">
            10 11 -75 callgsubr
            rrcurveto
            return
          </CharString>
          <CharString index="41">
            155 callgsubr
            -24 -1 -10 rlinecurve
            return
          </CharString>
          <CharString index="42">
            -45 27 -31 36 53 vvcurveto
            52 31 23 37 50 34 -42 -78 -137 -100 -142 -167 -86 -37 40 56 71 82 34 54 7 vhcurveto
            -10 22 -7 9 -14 16 rrcurveto
            return
          </CharString>
          <CharString index="43">
            234 callsubr
            60 -6 -137 -355 -135 357 331 callsubr
            -158 hlineto
            1 callsubr
            48 -6 172 -425 rlineto
            -58 -24 -56 -124 -38 hhcurveto
            -26 -2 18 18 4 hvcurveto
            2 -5 -4 0 -4 hhcurveto
            -22 -14 -17 -25 -23 19 -25 43 78 53 138 89 36 hvcurveto
            176 436 12 1 34 3 -7 23 382 callgsubr
          </CharString>
          <CharString index="44">
            rmoveto
            -28 callsubr
            -11 35 -41 11 hvcurveto
            return
          </CharString>
          <CharString index="45">
            41.5 return
          </CharString>
          <CharString index="46">
            -80 callgsubr
            64 40 51 59 return
          </CharString>
          <CharString index="47">
            -107 callgsubr
            100 -42 callgsubr
            return
          </CharString>
          <CharString index="48">
            -50 -70 callsubr
            return
          </CharString>
          <CharString index="49">
            -81 callsubr
            58 -53 23 76 callsubr
            vhcurveto
            -19 callgsubr
            return
          </CharString>
          <CharString index="50">
            -37 callgsubr
            182 -46 callgsubr
            return
          </CharString>
          <CharString index="51">
            45 -7 44 -9 34 vhcurveto
            return
          </CharString>
          <CharString index="52">
            179 callsubr
            74 -6 -170 -539 -156 525 rlineto
            -52 hlineto
            -177 -522 -151 538 47 -72 callsubr
            -171 hlineto
            -69 callsubr
            53 -6 189 -630 rlineto
            43 hlineto
            180 511 161 -511 rlineto
            47 hlineto
            208 633 18 2 33 3 -6 27 382 callgsubr
          </CharString>
          <CharString index="53">
            29 37 hvcurveto
            -44 callgsubr
          </CharString>
          <CharString index="54">
            99 13 57 82 69 hhcurveto
            9 8 0 -3 7 hvcurveto
            -385 -103 callgsubr
          </CharString>
          <CharString index="55">
            4 -29 -10 1 hvcurveto
            return
          </CharString>
          <CharString index="56">
            12 -25 rlinecurve
            -80 callsubr
            return
          </CharString>
          <CharString index="57">
            17 -38 16 -54 -50 vvcurveto
            -25 -4 return
          </CharString>
          <CharString index="58">
            -2 -4 -2 -9 -8 vvcurveto
            return
          </CharString>
          <CharString index="59">
            -87 callsubr
            51 return
          </CharString>
          <CharString index="60">
            -45 24 -39 35 51 vvcurveto
            33 17 25 38 63 9 -66 -93 vhcurveto
            return
          </CharString>
          <CharString index="61">
            -45 callgsubr
            -103 -53 147 117 -37 vhcurveto
            -218 91 callgsubr
            197 callgsubr
            124 hhcurveto
            73 40 52 69 68 -42 53 -20 24 hvcurveto
            146 hlineto
            -135 47 70 -131 113 hhcurveto
            73 40 52 69 68 -42 53 -20 24 hvcurveto
            return
          </CharString>
          <CharString index="62">
            -44 callsubr
            endchar
          </CharString>
          <CharString index="63">
            rmoveto
            271 vlineto
            140 -81 48 -75 -75 -58 -44 -36 -38 vhcurveto
            -3 hlineto
            -14 80 -115 -16 rlineto
            -13 -1 -20 106 callgsubr
            -404 41 callsubr
            178 -46 callgsubr
            -71 6 rlineto
            337 vlineto
            47 55 43 25 59 hhcurveto
            81 35 -58 -91 hvcurveto
            -262 41 callsubr
            177 -46 callgsubr
            return
          </CharString>
          <CharString index="64">
            33 -18 -46 67 -80 164 callgsubr
            -119 110 -104 89 -68 hvcurveto
            -61 callsubr
            56 43 -48 -42 19 vhcurveto
            -7 -21 -4 -18 -9 vvcurveto
            5 -13 22 -18 22 -7 rrcurveto
            return
          </CharString>
          <CharString index="65">
            9 10 2 6 6 hvcurveto
            9 8 8 37 30 vvcurveto
            return
          </CharString>
          <CharString index="66">
            -9 callgsubr
            31 callgsubr
            return
          </CharString>
          <CharString index="67">
            179 callsubr
            69 -6 -169 -315 -178 317 102 callgsubr
            -173 hlineto
            -69 callsubr
            54 -6 204 -360 rlineto
            -229 vlineto
            -59 callsubr
            189 -55 callgsubr
            -74 6 rlineto
            227 vlineto
            202 362 rlineto
            1 hlineto
            20 3 33 5 -6 25 382 callgsubr
          </CharString>
          <CharString index="68">
            rmoveto
            -69 callgsubr
            282 128 rmoveto
            return
          </CharString>
          <CharString index="69">
            98 76 37 64 53 40 -25 -33 37 return
          </CharString>
          <CharString index="70">
            13 -36 41 -10 return
          </CharString>
          <CharString index="71">
            rmoveto
            -6 10 -8 10 -12 6 -133 -89 rcurveline
            -133 89 -12 -6 -8 -10 -6 -10 rlinecurve
            return
          </CharString>
          <CharString index="72">
            vvcurveto
            71 31 47 76 49 22 -20 -23 22 vhcurveto
            16 13 rlineto
            36 -14 -32 47 -75 hhcurveto
            -78 -63 -51 -74 -8 hvcurveto
            79 -49 -49 44 -70 hhcurveto
            -44 -49 -18 -19 -29 hvcurveto
            9 -27 17 -25 7 -6 rrcurveto
            12 16 47 32 43 hhcurveto
            76 60 -102 -86 41 hvcurveto
            51 -49 -67 55 -69 hhcurveto
            -43 -51 -22 -23 -28 hvcurveto
            8 -23 10 -19 14 -15 rrcurveto
            19 24 50 30 42 hhcurveto
            return
          </CharString>
          <CharString index="73">
            rmoveto
            392 callgsubr
            56 37 -22 -35 40 hvcurveto
            -116 vlineto
            -7 -10 -8 -9 -8 -8 rrcurveto
            -36 -27 rmoveto
            -17 -30 -34 69 callsubr
            return
          </CharString>
          <CharString index="74">
            hhcurveto
            -38 -65 311 callgsubr
            52 19 -7 -20 28 hvcurveto
            18 32 rlineto
            23 -24 -43 22 -65 hhcurveto
            -81 -84 -47 -94 -90 78 -82 100 return
          </CharString>
          <CharString index="75">
            -11 16 -14 15 -18 10 522 callgsubr
            return
          </CharString>
          <CharString index="76">
            38 -38 -56 19 -51 hhcurveto
            return
          </CharString>
          <CharString index="77">
            420 callgsubr
            -10 -101 -274 -6 rlineto
            270 vlineto
            196 -11 4 22 0 24 -4 19 rlinecurve
            -196 -11 rlineto
            return
          </CharString>
          <CharString index="78">
            255 callsubr
            21 17 -5 -11 13 hvcurveto
            -24 -8 -15 -19 -27 vvcurveto
            -22 13 -30 20 -33 vhcurveto
            22 callgsubr
            -21 44 57 -10 55 hhcurveto
            return
          </CharString>
          <CharString index="79">
            5 callsubr
            -12 -41 -34 -13 return
          </CharString>
          <CharString index="80">
            6 hlineto
            -175 159 callsubr
            264 220 rlineto
            98 callgsubr
          </CharString>
          <CharString index="81">
            90 82 49 33 7 -3 8 -7 5 hvcurveto
            -36 -45 -43 -17 -51 hhcurveto
            -119 -40 96 102 12 1 12 1 12 hvcurveto
            return
          </CharString>
          <CharString index="82">
            28 201 callgsubr
            -28 -25 -21 -22 -25 -26 21 -21 25 hvcurveto
            return
          </CharString>
          <CharString index="83">
            50 51 -33 -65 -56 -37 -42 -70 -99 -60 84 120 -59 hvcurveto
            -13 -1 -14 -8 -8 -9 rrcurveto
            -134 61 87 -100 121 hhcurveto
            85 60 50 86 6 0 6 -1 6 hvcurveto
            10 hlineto
            38 38 7 9 25 hvcurveto
            -243 vlineto
            -97 callsubr
            return
          </CharString>
          <CharString index="84">
            -24 vvcurveto
            -46 29 -53 95 -41 vhcurveto
            3 2 9 12 2 10 rrcurveto
            -71 45 -12 return
          </CharString>
          <CharString index="85">
            70 -93 118 60 43 24 322 callgsubr
          </CharString>
          <CharString index="86">
            211 callsubr
            -13 4 -16 1 rrcurveto
            44 -21 -42 22 -50 hhcurveto
            -53 -43 -27 -29 -31 hvcurveto
            -53 -108 -82 callsubr
            hvcurveto
            return
          </CharString>
          <CharString index="87">
            hhcurveto
            -42 callsubr
            return
          </CharString>
          <CharString index="88">
            79 callsubr
            -156 hmoveto
            26 201 callgsubr
            -26 -27 -21 -22 -25 -26 21 -21 27 hvcurveto
            return
          </CharString>
          <CharString index="89">
            -13 callsubr
            vlineto
            return
          </CharString>
          <CharString index="90">
            -17 callgsubr
            -62 -39 -66 -162 -26 vhcurveto
            return
          </CharString>
          <CharString index="91">
            300 callgsubr
            -119 110 -104 89 -68 hvcurveto
            32 callsubr
            return
          </CharString>
          <CharString index="92">
            rmoveto
            1 hlineto
            61 3 rlineto
            97 5 98 -7 -135 vvcurveto
            -87 -65 -54 -124 -18 -26 1 2 -24 vhcurveto
            -109 315 rmoveto
            -29 6 -25 -14 hvcurveto
            73 -6 rlineto
            -589 381 callgsubr
            -33 -2 5 -28 -10 vvcurveto
            188 hlineto
            25 -2 26 13 hvcurveto
            -74 6 rlineto
            275 vlineto
            -2 25 28 -1 22 hhcurveto
            3 hlineto
            return
          </CharString>
          <CharString index="93">
            312 callsubr
            79 37 callsubr
          </CharString>
          <CharString index="94">
            -107 callgsubr
            -81 callgsubr
            return
          </CharString>
          <CharString index="95">
            -153 -37 -79 -61 -84 56 -49 93 70 57 34 32 30 hvcurveto
            -39 4 17 -28 45 hhcurveto
            24 31 8 35 hvcurveto
            endchar
          </CharString>
          <CharString index="96">
            -14 632 rmoveto
            78 3 35 -70 -63 vvcurveto
            -67 -40 -68 -74 -1 vhcurveto
            -76 -1 -37 71 64 vvcurveto
            69 43 61 71 2 vhcurveto
            108 11 rmoveto
            20 -29 -37 9 -35 hhcurveto
            -117 -68 -97 -102 8 hvcurveto
            5 -58 29 -47 49 -24 rrcurveto
            return
          </CharString>
          <CharString index="97">
            -41 callsubr
            endchar
          </CharString>
          <CharString index="98">
            355 callgsubr
            -662 -107 callgsubr
            464 2 callgsubr
            hintmask 1001001111000000
            -65 callsubr
            hintmask 1010111111000000
            -10 callgsubr
            225 callgsubr
            hintmask 1010101111000000
            229 callgsubr
            vhcurveto
            4 hlineto
            -176 -113 -32 callgsubr
            hintmask 0110101111000000
            -163 121 rlineto
            148 20 99 123 171 vvcurveto
            73 -24 74 -65 23 vhcurveto
            endchar
          </CharString>
          <CharString index="99">
            -57 46 -97 101 -56 90 return
          </CharString>
          <CharString index="100">
            128 callgsubr
            -62 -41 -37 -73 -83 -81 51 124 -89 hvcurveto
            -13 -6 -8 -5 -7 -9 rrcurveto
            -82 46 111 -124 140 hhcurveto
            85 55 45 70 10 hvcurveto
            6 5 0 5 hhcurveto
            return
          </CharString>
          <CharString index="101">
            vlineto
            -44 -29 -6 -36 415 callsubr
            hvcurveto
            -56 callgsubr
            return
          </CharString>
          <CharString index="102">
            rmoveto
            -15 4 -24 1 -19 -5 -130 -119 rcurveline
            6 -10 8 -10 12 -6 133 89 rcurveline
            133 -89 12 6 8 10 6 10 rlinecurve
            endchar
          </CharString>
          <CharString index="103">
            65 callgsubr
            hvcurveto
            hintmask 11011110
            414 callsubr
            hintmask 10111111
            -61 callgsubr
            rrcurveto
            -93 70 78 -40 85 hhcurveto
            101 73 56 87 59 -33 66 -65 hvcurveto
            325 callsubr
            return
          </CharString>
          <CharString index="104">
            22 -29 -41 20 -52 hhcurveto
            -81 -84 -47 -94 -90 77 -82 101 47 32 18 24 30 hvcurveto
            -173 -103 callgsubr
          </CharString>
          <CharString index="105">
            rmoveto
            -15 395 callgsubr
            42 26 32 42 24 33 -10 -40 -52 -37 -35 -58 -16 vhcurveto
            hintmask 11111011
            41 446 rmoveto
            165 hlineto
            252 callgsubr
            356 -101 hlineto
            2 -19 -15 2 -25 hhcurveto
            -152 -85 -75 -112 return
          </CharString>
          <CharString index="106">
            -34 1 -45 -1 -4 15 -2 9 9 16 24 25 rrcurveto
            -2 13 15 -2 16 hhcurveto
            117 55 83 96 2 hvcurveto
            1 48 -13 36 -21 26 32 -1 43 -1 14 8 16 12 -5 25 -11 14 rrcurveto
            endchar
          </CharString>
          <CharString index="107">
            hstem
            99 57 336 -58 callgsubr
            return
          </CharString>
          <CharString index="108">
            -28 4 -25 -10 1 hvcurveto
            return
          </CharString>
          <CharString index="109">
            61 13 -15 -20 -24 -18 -15 -31 -23 -14 8 11 -14 hvcurveto
            -6 -4 -8 -10 2 -15 rrcurveto
            -15 14 24 -13 35 hhcurveto
            52 39 29 50 39 -23 30 -57 hvcurveto
            return
          </CharString>
          <CharString index="110">
            rmoveto
            -19 -30 -33 -9 -33 hhcurveto
            -57 26 callsubr
            1006 457 callgsubr
            -1144 -107 callgsubr
            945 387 callgsubr
            hintmask 1010011110000000
            35 callgsubr
            -10 -18 -4 -9 -9 hvcurveto
            -3 -85 -25 -60 -37 -39 rrcurveto
            hintmask 0110101110000000
            537 callgsubr
            286 callgsubr
            hintmask 0111011110000000
            285 callgsubr
            78 103 49 136 30 hvcurveto
            hintmask 1010011110000000
            -130 48 71 -103 108 140 callsubr
          </CharString>
          <CharString index="111">
            vvcurveto
            10 callsubr
            return
          </CharString>
          <CharString index="112">
            -36 callgsubr
            -37 callsubr
            return
          </CharString>
          <CharString index="113">
            -147 56 116 122 callsubr
            hintmask 1101111100000000
            371 -125 rmoveto
            12 6 16 16 5 11 -157 117 rcurveline
            hintmask 1101111110000000
            100 1 72 55 87 vvcurveto
            59 -33 66 -65 vhcurveto
            hintmask 1110111100000000
            -57 callgsubr
            118 99 vlineto
            346 callgsubr
            470 callgsubr
            hvcurveto
            185 callgsubr
            59 -78 64 -41 70 -11 -179 -115 rcurveline
            8 -17 16 -20 15 -11 165 121 rcurveline
            return
          </CharString>
          <CharString index="114">
            rmoveto
            131 122 31 87 70 90 -21 -106 -105 -98 -75 -111 -91 -69 52 93 vhcurveto
            336 -341 rmoveto
            12 6 16 16 5 11 -155 115 rcurveline
            102 13 102 69 133 vvcurveto
            368 callgsubr
            124 202 vlineto
            105 callgsubr
            -119 94 -88 122 -8 hvcurveto
            -169 -109 509 callgsubr
            51 -89 -100 callgsubr
            endchar
          </CharString>
          <CharString index="115">
            499 callsubr
            -27 -19 -20 -27 -27 19 -20 27 hvcurveto
            return
          </CharString>
          <CharString index="116">
            vvcurveto
            -56 callsubr
            return
          </CharString>
          <CharString index="117">
            92 callgsubr
            vhcurveto
            -32 callsubr
            return
          </CharString>
          <CharString index="118">
            -46 -35 -59 -34 -54 -63 callgsubr
            return
          </CharString>
          <CharString index="119">
            vvcurveto
            -42 -27 -54 -91 -2 vhcurveto
            38 -22 -23 35 -27 hhcurveto
            -21 -40 -21 -31 -23 45 -39 64 -10 hvcurveto
            34 -56 30 -61 24 -49 21 8 19 16 9 12 -16 29 -43 58 -35 40 rrcurveto
            84 4 66 50 84 vvcurveto
            61 -36 73 -87 65 vhcurveto
            return
          </CharString>
          <CharString index="120">
            -37 callgsubr
            202 hlineto
            28 -5 20 15 hvcurveto
            -97 6 rlineto
            404 return
          </CharString>
          <CharString index="121">
            177 callsubr
            -67 120 rrcurveto
            98 6 30 102 102 callsubr
            return
          </CharString>
          <CharString index="122">
            -138 114 42 394 50 -22 37 hstemhm
            61 291 callsubr
            hintmask 11011100
            403 600 rmoveto
            -68 -107 callgsubr
            68 -98 callsubr
            -100 -191 rmoveto
            -36 -11 -31 -12 -24 -16 rrcurveto
            hintmask 10111100
            -40 9 -55 40 67 204 callsubr
            -88 69 -52 79 -6 vhcurveto
            -147 -78 -5 callgsubr
            rlinecurve
            308 195 -13 86 rlineto
            -57 -31 -77 -54 511 callsubr
            hintmask 11011100
            96 callgsubr
            rrcurveto
            return
          </CharString>
          <CharString index="123">
            277 callsubr
            28 257 callsubr
            hintmask 11111010
            147 callsubr
            hintmask 11111100
            36 -48 16 -40 24 -46 -93 callgsubr
            167 callgsubr
            hvcurveto
            hintmask 11111010
            30 callsubr
            return
          </CharString>
          <CharString index="124">
            hhcurveto
            -48 -53 27 58 66 67 34 75 25 189 callgsubr
            return
          </CharString>
          <CharString index="125">
            6 callgsubr
            37 38 5 9 31 hvcurveto
            -259 -103 callgsubr
          </CharString>
          <CharString index="126">
            -77 269 callsubr
            216 26 hintmask 11011100
            470 600 rmoveto
            -93 324 callgsubr
            -98 callsubr
            hintmask 10111100
            -314 15 rmoveto
            390 callsubr
            hvcurveto
            104 callsubr
            -47 callsubr
            -105 -6 callsubr
            57 89 -2 -4 70 hvcurveto
            -296 -224 68 callgsubr
            rlinecurve
            287 236 rlineto
            82 vlineto
            4 -49 -159 3 -34 hhcurveto
            160 vlineto
            258 callgsubr
            return
          </CharString>
          <CharString index="127">
            19 callgsubr
            -68 -41 -41 -73 -83 -81 54 131 -89 hvcurveto
            -13 -6 -8 -5 -7 -9 rrcurveto
            -86 46 111 -130 140 hhcurveto
            return
          </CharString>
          <CharString index="128">
            35 -73 hhcurveto
            -50 -55 -24 -20 -22 hvcurveto
            5 -16 15 -28 12 -14 rrcurveto
            18 28 49 26 37 hhcurveto
            61 35 -29 -58 57 hvcurveto
            -248 -149 172 callsubr
            return
          </CharString>
          <CharString index="129">
            rmoveto
            -91 -69 52 93 131 122 31 87 70 90 -21 -106 -105 -98 -75 -111 hvcurveto
            return
          </CharString>
          <CharString index="130">
            rmoveto
            652 vlineto
            311 callsubr
            -21 106 callgsubr
            72 callgsubr
            return
          </CharString>
          <CharString index="131">
            52 42 callgsubr
            return
          </CharString>
          <CharString index="132">
            105 callsubr
            -766 13 callgsubr
            11 15 12 23 1 13 165 callgsubr
          </CharString>
          <CharString index="133">
            -60 37 82 37 11 30 19 22 hvcurveto
            return
          </CharString>
          <CharString index="134">
            550 296 callgsubr
            hintmask 10111100
            142 callgsubr
            -105 vlineto
            -44 -29 -6 -36 -39 54 -45 15 -5 hvcurveto
            206 callgsubr
            hintmask 11011100
            -4 callgsubr
          </CharString>
          <CharString index="135">
            534 callsubr
            40 callgsubr
            518 callsubr
            return
          </CharString>
          <CharString index="136">
            rmoveto
            51 31 -27 -43 -51 -42 -30 -53 -33 hvcurveto
            -27 15 -49 44 50 vvcurveto
            40 30 35 59 vhcurveto
            return
          </CharString>
          <CharString index="137">
            37 23 -7 10 hhcurveto
            9 18 19 13 hvcurveto
            return
          </CharString>
          <CharString index="138">
            -173 13 -21 140 51 367 219 callgsubr
            hintmask 11101100
            366 600 rmoveto
            -29 -107 callgsubr
            29 -98 callsubr
            hintmask 11011100
            -201 15 rmoveto
            454 callgsubr
            hvcurveto
            135 callsubr
            -17 callsubr
            20 -113 79 -82 121 -2 -169 -90 rcurveline
            -5 callgsubr
            308 195 rcurveline
            -12 73 rlineto
            -32 -27 -58 -45 -74 hhcurveto
            -80 -54 42 61 -33 hvcurveto
            145 34 60 74 79 vvcurveto
            82 -63 60 -78 vhcurveto
            return
          </CharString>
          <CharString index="139">
            12 11 5 5 9 16 rrcurveto
            -81 59 -89 83 97 vvcurveto
            -38 callgsubr
            return
          </CharString>
          <CharString index="140">
            -118 -83 callgsubr
            return
          </CharString>
          <CharString index="141">
            hhcurveto
            -3 -1 -18 -20 -5 -15 rrcurveto
            46 -40 37 -40 -45 vvcurveto
            -42 -31 -25 -42 -93 -67 121 94 -35 vhcurveto
            -10 -18 -6 -9 -9 hvcurveto
            -118 40 78 -138 124 hhcurveto
            73 38 47 58 48 -26 return
          </CharString>
          <CharString index="142">
            -3 -10 -2 -10 -11 vvcurveto
            123 callsubr
            return
          </CharString>
          <CharString index="143">
            -141 81 -56 88 100 50 71 115 vhcurveto
            return
          </CharString>
          <CharString index="144">
            -361 -60 callgsubr
          </CharString>
          <CharString index="145">
            50 -72 callsubr
            -187 hlineto
            -66 callgsubr
            return
          </CharString>
          <CharString index="146">
            99 callsubr
            -74 6 rlineto
            return
          </CharString>
          <CharString index="147">
            5 -11 -13 2 -11 hhcurveto
            -72 -48 -50 -50 -27 hvcurveto
            return
          </CharString>
          <CharString index="148">
            vlineto
            -47 -66 callsubr
            return
          </CharString>
          <CharString index="149">
            -27 -17 -17 -28 -21 14 -20 23 -3 hvcurveto
            -5 -17 -11 -22 -19 -13 rrcurveto
            -5 12 -12 5 3 vhcurveto
            32 13 37 52 44 vvcurveto
            28 -18 18 -26 vhcurveto
            return
          </CharString>
          <CharString index="150">
            vvcurveto
            55 callsubr
            hvcurveto
            return
          </CharString>
          <CharString index="151">
            5 2 19 52 callsubr
            return
          </CharString>
          <CharString index="152">
            365 callgsubr
            166 45 63 56 hintmask 11011110
            545 415 rmoveto
            30 -31 -38 7 -38 hhcurveto
            -80 -84 -46 -98 -85 63 -80 112 57 35 20 30 34 hvcurveto
            85 vlineto
            -58 -29 -61 -27 -51 hhcurveto
            -40 -64 21 76 83 63 29 61 24 23 -1 -15 25 hvcurveto
            return
          </CharString>
          <CharString index="153">
            -66 -33 -53 -53 -32 13 -36 27 -34 hvcurveto
            434 callgsubr
            return
          </CharString>
          <CharString index="154">
            85 callsubr
            342 hlineto
            16 -6 23 -9 11 vhcurveto
            return
          </CharString>
          <CharString index="155">
            -91 callsubr
            endchar
          </CharString>
          <CharString index="156">
            148 callsubr
            55 220 callsubr
            return
          </CharString>
          <CharString index="157">
            rmoveto
            -23 -1 -24 -21 -11 -22 196 -106 rcurveline
            12 6 8 10 6 10 rrcurveto
            return
          </CharString>
          <CharString index="158">
            -19 callgsubr
            51 45 -1 -1 40 hvcurveto
            35 -2 31 -1 27 -3 return
          </CharString>
          <CharString index="159">
            184 callgsubr
            -45 58 -71 110 89 vvcurveto
            return
          </CharString>
          <CharString index="160">
            rmoveto
            -51 -35 -66 -36 -56 17 callsubr
            hintmask 11101000
            -31 -9 -27 -10 -24 -13 rrcurveto
            -34 5 -46 31 401 callsubr
            -610 86 callsubr
            -50 72 -30 vhcurveto
            hintmask 11011000
            -24 -24 -13 -30 -38 vvcurveto
            -86 71 -54 87 -6 526 callgsubr
            268 170 rlineto
            -149 -103 callgsubr
          </CharString>
          <CharString index="161">
            342 callsubr
            184 -98 callsubr
            -603 21 callgsubr
            hintmask 11101110
            284 vlineto
            44 33 49 53 63 299 callgsubr
            -45 -30 -30 -31 hvcurveto
            endchar
          </CharString>
          <CharString index="162">
            200 callsubr
            48 43 12 21 30 vhcurveto
            96 callsubr
            return
          </CharString>
          <CharString index="163">
            52 65 callsubr
            return
          </CharString>
          <CharString index="164">
            -33 357 callgsubr
            vstem
            512 600 rmoveto
            -537 -107 callgsubr
            537 -98 callsubr
            -461 -171 rmoveto
            326 callsubr
            89 -55 58 -75 -289 -186 rcurveline
            68 callgsubr
            317 225 rcurveline
            136 -64 -169 75 339 callsubr
            return
          </CharString>
          <CharString index="165">
            rmoveto
            -55 -37 -35 -53 -50 35 -34 53 54 37 35 53 1 hvcurveto
            50 -34 34 -54 vhcurveto
            -2 -40 rmoveto
            28 18 -18 -28 -28 -18 -18 -28 -28 -18 18 28 28 18 18 28 hvcurveto
            endchar
          </CharString>
          <CharString index="166">
            -236 vlineto
            -104 callsubr
            return
          </CharString>
          <CharString index="167">
            18 -38 15 -44 -52 vvcurveto
            -26 -3 -41 -10 -31 vhcurveto
            5 -17 -20 5 -20 hhcurveto
            -47 -22 -23 -33 -106 138 -108 184 -9 hvcurveto
            -292 -82 3 -20 9 -21 10 -10 rlinecurve
            return
          </CharString>
          <CharString index="168">
            58 -97 115 -121 19 -15 -7 callgsubr
            -8 callsubr
            40 2 return
          </CharString>
          <CharString index="169">
            -94 -71 -88 -45 26 -37 32 -36 hvcurveto
            endchar
          </CharString>
          <CharString index="170">
            rmoveto
            -87 -70 32 66 41 26 48 39 28 hvcurveto
            22 -3 25 0 29 -1 rrcurveto
            112 -3 81 -8 -75 vvcurveto
            -63 -57 -62 -120 vhcurveto
            return
          </CharString>
          <CharString index="171">
            -371 hlineto
            2 -19 7 -19 8 -12 rrcurveto
            170 212 callsubr
            return
          </CharString>
          <CharString index="172">
            -23 24 callsubr
            return
          </CharString>
          <CharString index="173">
            21 8 21 17 9 12 -15 return
          </CharString>
          <CharString index="174">
            0 -62 callsubr
            return
          </CharString>
          <CharString index="175">
            81 217 callsubr
            132 callgsubr
            return
          </CharString>
          <CharString index="176">
            -10 -38 hhcurveto
            -52 26 callsubr
            return
          </CharString>
          <CharString index="177">
            rmoveto
            77 callsubr
            return
          </CharString>
          <CharString index="178">
            85 -37 65 -22 -88 vvcurveto
            -90 -67 -55 -98 -83 -63 39 77 -20 vhcurveto
            -28 -17 -23 -29 -69 99 -45 97 147 93 105 111 return
          </CharString>
          <CharString index="179">
            15 -5 vhcurveto
            -56 callgsubr
            return
          </CharString>
          <CharString index="180">
            -7 -16 160 callsubr
            return
          </CharString>
          <CharString index="181">
            -63 159 129 -37 vhcurveto
            return
          </CharString>
          <CharString index="182">
            342 callsubr
            154 -98 callsubr
            -573 -91 callgsubr
            hintmask 11011100
            294 callsubr
          </CharString>
          <CharString index="183">
            11 15 4 10 5 return
          </CharString>
          <CharString index="184">
            -107 callsubr
            -252 -107 callgsubr
            54 -311 hlineto
            -28 -31 -50 -28 -62 33 callgsubr
            return
          </CharString>
          <CharString index="185">
            -44 -105 -29 -19 hhcurveto
            -14 -30 18 50 47 19 24 105 hvcurveto
            69 15 -3 22 hhcurveto
            9 19 18 14 hvcurveto
            return
          </CharString>
          <CharString index="186">
            rmoveto
            -25 callsubr
            return
          </CharString>
          <CharString index="187">
            rmoveto
            -272 -4 rlineto
            589 vlineto
            50 -72 callsubr
            -187 hlineto
            -69 callsubr
            74 -6 rlineto
            return
          </CharString>
          <CharString index="188">
            -106 callsubr
            198 -86 callsubr
            return
          </CharString>
          <CharString index="189">
            330 -16 callgsubr
            112 244 vlineto
            return
          </CharString>
          <CharString index="190">
            152 0 42 273 45 275 488 callgsubr
            273 189 45 -189 274 89 callsubr
            -272 -51 -45 51 -272 117 callsubr
          </CharString>
          <CharString index="191">
            244 rmoveto
            -47 callgsubr
            return
          </CharString>
          <CharString index="192">
            -73 callsubr
            vhcurveto
            553 callgsubr
            return
          </CharString>
          <CharString index="193">
            -107 callgsubr
            63 hlineto
            -12 -16 -8 -21 -30 vvcurveto
            -51 22 return
          </CharString>
          <CharString index="194">
            163 callgsubr
            20 -110 69 -85 122 -8 -177 -94 rcurveline
            -5 callgsubr
            274 174 rcurveline
            8 4 rlineto
            247 callsubr
          </CharString>
          <CharString index="195">
            30 callsubr
            endchar
          </CharString>
          <CharString index="196">
            vlineto
            51 2 rlineto
            209 8 112 -86 -220 vvcurveto
            -204 -112 -92 -186 vhcurveto
            -182 635 66 callgsubr
            return
          </CharString>
          <CharString index="197">
            134 callsubr
            46 60 vvcurveto
            56 return
          </CharString>
          <CharString index="198">
            -234 0 512 callgsubr
            return
          </CharString>
          <CharString index="199">
            -192 289 callgsubr
            hstem
            185 55 vstem
            393 253 rmoveto
            -36 -23 -52 -32 453 callgsubr
            20 62 54 73 vvcurveto
            47 -29 36 -25 23 vhcurveto
            178 -98 callsubr
            -374 -107 callgsubr
            147 101 callgsubr
            20 -110 68 -86 123 -7 -177 -94 rcurveline
            -5 callgsubr
            316 198 rcurveline
            return
          </CharString>
          <CharString index="200">
            -214 vlineto
            -104 callsubr
            return
          </CharString>
          <CharString index="201">
            rmoveto
            -86 1 -83 -50 -2 -88 -1 -87 86 -29 80 -29 rrcurveto
            hintmask 11101000
            27 callgsubr
            2 76 -59 24 -81 32 rrcurveto
            187 callgsubr
            hintmask 11110000
            62 -1 24 -34 -1 -43 17 -1 34 8 1 37 1 54 -71 24 -57 1 rrcurveto
            endchar
          </CharString>
          <CharString index="202">
            -92 26 -58 92 52 84 35 36 9 -6 10 -11 4 vhcurveto
            -42 -54 -25 -2 -39 hhcurveto
            -56 -8 39 73 hvcurveto
            endchar
          </CharString>
          <CharString index="203">
            36 -49 17 -39 24 -47 -93 callgsubr
            return
          </CharString>
          <CharString index="204">
            -42 callsubr
            61 84 -2 -5 70 452 callsubr
            return
          </CharString>
          <CharString index="205">
            -25 -29 -55 -36 -95 hhcurveto
            -169 -58 129 164 182 71 130 145 hvcurveto
            return
          </CharString>
          <CharString index="206">
            -59 callsubr
            187 -55 callgsubr
            return
          </CharString>
          <CharString index="207">
            107 -15 45 603.5 -62 callsubr
            return
          </CharString>
          <CharString index="208">
            -107 callgsubr
            321 return
          </CharString>
          <CharString index="209">
            98 9 callsubr
            return
          </CharString>
          <CharString index="210">
            40 63 28 36 hhcurveto
            30 22 -19 -32 -43 -40 -51 -99 -79 -54 32 77 -56 hvcurveto
            -11 -6 -13 -11 -6 -9 return
          </CharString>
          <CharString index="211">
            7 6 6 12 3 10 rrcurveto
            return
          </CharString>
          <CharString index="212">
            198 callgsubr
            82 63 29 61 46 35 -17 -20 26 hvcurveto
            198 185 -103 callsubr
            return
          </CharString>
          <CharString index="213">
            99 13 51 82 65 hhcurveto
            return
          </CharString>
          <CharString index="214">
            163 callgsubr
            -115 21 74 -88 133 -98 callgsubr
          </CharString>
          <CharString index="215">
            106 201 50 hstem
            179 45 vstem
            342 -86 callgsubr
            -352 -107 callgsubr
            156 hlineto
            17 -38 16 -54 -50 vvcurveto
            85 callgsubr
            rrcurveto
            99 4 33 90 90 9 callsubr
            return
          </CharString>
          <CharString index="216">
            hhcurveto
            -137 -94 -38 -105 -97 80 -120 57 -74 hvcurveto
            425 callsubr
            57 -70 106 82 vvcurveto
            439 callsubr
            return
          </CharString>
          <CharString index="217">
            -65 -40 -52 -40 -77 hhcurveto
            -54 -35 17 61 -64 hvcurveto
            -8 -6 -12 -11 -5 -8 rrcurveto
            -66 50 77 -44 78 hhcurveto
            92 74 71 43 26 hvcurveto
            return
          </CharString>
          <CharString index="218">
            -29 6 -26 -14 hvcurveto
            71 -406 hlineto
            13 callsubr
            return
          </CharString>
          <CharString index="219">
            -36 -36 -9 -17 -31 hvcurveto
            -30 233 callsubr
            18 105 vhcurveto
            return
          </CharString>
          <CharString index="220">
            -107 callgsubr
            100 -180 278 callsubr
            return
          </CharString>
          <CharString index="221">
            hlineto
            -49 callgsubr
            return
          </CharString>
          <CharString index="222">
            vlineto
            1 callsubr
            return
          </CharString>
          <CharString index="223">
            -247 372 58 120 50 hstem
            -25 410 198 callsubr
            319 -98 callsubr
            77 -278 rmoveto
            -26 -16 rlineto
            80 -78 -45 44 -82 hhcurveto
            -50 -55 -24 -20 -22 hvcurveto
            5 -16 15 -28 12 -14 rrcurveto
            18 28 49 26 37 hhcurveto
            61 35 -28 -58 56 hvcurveto
            -247 -150 172 callsubr
            292 191 rlineto
            return
          </CharString>
          <CharString index="224">
            vlineto
            -59 callsubr
            231 hlineto
            225 114 119 227 218 -94 113 -245 hvcurveto
            endchar
          </CharString>
          <CharString index="225">
            438 callsubr
            148 213 vlineto
            412 -86 callsubr
            -771 165 callsubr
            170 160 -289 vlineto
            -351 -203 -5 callgsubr
            rlinecurve
            320 199 rlineto
            -199 -103 callgsubr
          </CharString>
          <CharString index="226">
            -33 -2 6 -28 -1 -10 rrcurveto
            457 129 hlineto
            28 -29 -4 -10 -1 vhcurveto
            endchar
          </CharString>
          <CharString index="227">
            3 -17 -16 1 -16 hhcurveto
            -142 -94 -74 -122 return
          </CharString>
          <CharString index="228">
            -25 -3 -31 25 2 43 rrcurveto
            40 2 29 16 108 47 16 -3 26 hhcurveto
            12 10 23 13 hvcurveto
            return
          </CharString>
          <CharString index="229">
            50 49 callsubr
            return
          </CharString>
          <CharString index="230">
            -47 31 -39 57 -35 vhcurveto
            135 callsubr
            return
          </CharString>
          <CharString index="231">
            87 38 -45 -67 hvcurveto
            24 31 13 44 84 -116 23 -62 -2 hvcurveto
            -113 -3 -87 -66 -102 vvcurveto
            -100 94 -46 106 -46 vhcurveto
            return
          </CharString>
          <CharString index="232">
            180 41 -64 callgsubr
            return
          </CharString>
          <CharString index="233">
            129 callsubr
            -95 -76 -63 -93 return
          </CharString>
          <CharString index="234">
            -16 callgsubr
            112 244 vlineto
            143 callsubr
            -589 -107 callgsubr
            87 -140 278 callsubr
            vhcurveto
            -27 callsubr
          </CharString>
          <CharString index="235">
            vlineto
            -100 -29 -32 -43 -33 -14 15 27 -2 vhcurveto
            -25 2 -14 -15 -25 vvcurveto
            -34 37 -17 37 108 33 107 108 vhcurveto
            return
          </CharString>
          <CharString index="236">
            -107 callgsubr
            366 -165 hlineto
            -31 callsubr
            return
          </CharString>
          <CharString index="237">
            22 -36 40 -32 20 -1 13 1 13 16 535 callsubr
            -15 49 -7 24 return
          </CharString>
          <CharString index="238">
            -76 callsubr
            endchar
          </CharString>
          <CharString index="239">
            -204 195 42 313 50 hstem
            77 59 vstem
            391 350 rmoveto
            -65 -30 -62 -48 -62 hhcurveto
            -80 -21 52 149 hvcurveto
            112 214 -71 callsubr
            -360 -107 callgsubr
            87 -140 278 callsubr
            vhcurveto
            -169 159 callsubr
            309 258 rlineto
            return
          </CharString>
          <CharString index="240">
            35 -23 -56 61 -94 hhcurveto
            -102 -62 -72 -105 -120 81 -67 82 62 40 39 58 37 hvcurveto
            -51 29 56 -46 79 hhcurveto
            return
          </CharString>
          <CharString index="241">
            -30 -30 -51 -20 -52 hhcurveto
            -80 -51 42 60 -23 hvcurveto
            83 20 58 return
          </CharString>
          <CharString index="242">
            7 4 7 9 5 10 rrcurveto
            return
          </CharString>
          <CharString index="243">
            55 146 53 return
          </CharString>
          <CharString index="244">
            -57 callgsubr
            endchar
          </CharString>
          <CharString index="245">
            -11 -39 hhcurveto
            -52 -59 37 82 37 11 30 19 23 hvcurveto
            return
          </CharString>
          <CharString index="246">
            256 500 -68 callgsubr
            return
          </CharString>
          <CharString index="247">
            hhcurveto
            73 40 52 69 68 -42 53 -20 24 hvcurveto
            215 -346 -60 callgsubr
          </CharString>
          <CharString index="248">
            rmoveto
            118 165 rlineto
            -165 vlineto
            104 hmoveto
            -53 hlineto
            -1 233 -14 3 -14 -1 -15 -4 rlinecurve
            -168 -235 1 -12 7 -10 6 -9 rlinecurve
            147 return
          </CharString>
          <CharString index="249">
            vvcurveto
            150 callsubr
            return
          </CharString>
          <CharString index="250">
            199 -86 callsubr
            return
          </CharString>
          <CharString index="251">
            hhcurveto
            50 42 17 return
          </CharString>
          <CharString index="252">
            86 96 32 48 48 hvcurveto
            195 vlineto
            24 3 32 4 -5 26 382 callgsubr
          </CharString>
          <CharString index="253">
            -153 vlineto
            -104 callsubr
            return
          </CharString>
          <CharString index="254">
            377 550 rmoveto
            137 237 callgsubr
            334 243 callsubr
            108 callgsubr
            return
          </CharString>
          <CharString index="255">
            136 176 callsubr
            return
          </CharString>
          <CharString index="256">
            hvcurveto
            46 22 -3 26 hhcurveto
            11 return
          </CharString>
          <CharString index="257">
            -134 184 52 callgsubr
            -138 56 105 vvcurveto
            return
          </CharString>
          <CharString index="258">
            hhcurveto
            -47 -66 22 93 98 72 36 68 26 23 -5 -21 34 hvcurveto
            15 36 rlineto
            25 -31 -37 17 -52 hhcurveto
            return
          </CharString>
          <CharString index="259">
            -107 callgsubr
            155 hlineto
            -101 callsubr
            29 15 21 24 rrcurveto
            return
          </CharString>
          <CharString index="260">
            -50 callgsubr
            -14 callsubr
          </CharString>
          <CharString index="261">
            vhcurveto
            184 118 callgsubr
          </CharString>
          <CharString index="262">
            315 callsubr
            hintmask 11011110
            414 callsubr
            hintmask 10111111
            -61 callgsubr
            return
          </CharString>
          <CharString index="263">
            rcurveline
            8 -17 16 -20 15 -11 165 121 rcurveline
            141 -111 12 6 16 16 5 11 rlinecurve
            return
          </CharString>
          <CharString index="264">
            -103 callsubr
            -577 -107 callgsubr
            379 return
          </CharString>
          <CharString index="265">
            -113 86 -103 164 142 61 77 71 77 -71 30 -50 return
          </CharString>
          <CharString index="266">
            -131 68 callgsubr
            rlinecurve
            return
          </CharString>
          <CharString index="267">
            rrcurveto
            -49 callsubr
            return
          </CharString>
          <CharString index="268">
            -25 204 callgsubr
            -290 -107 callgsubr
            110 -243 hlineto
            -34 -1 -28 -8 260 callsubr
            return
          </CharString>
          <CharString index="269">
            hstem
            -20 39 114 58 vstem
            72 675 179 callsubr
            84 -6 rlineto
            -513 vlineto
            -100 -22 -32 -43 -33 -14 15 27 -2 vhcurveto
            -25 2 -14 -15 -21 vvcurveto
            -32 35 -23 39 87 50 81 109 vhcurveto
            504 vlineto
            45 -72 callsubr
            return
          </CharString>
          <CharString index="270">
            -156 51 rmoveto
            -9 -37 -29 -12 -10 30 -35 11 11 34 31 10 9 -29 36 -11 hvcurveto
            endchar
          </CharString>
          <CharString index="271">
            hhcurveto
            -97 -69 -42 -74 -59 43 -51 13 -9 hvcurveto
            9 16 9 6 4 hvcurveto
            -11 11 -22 27 41 vvcurveto
            62 54 28 79 168 121 -157 -70 32 vhcurveto
            -143 1 callgsubr
          </CharString>
          <CharString index="272">
            324 callgsubr
            -159 307 callsubr
            return
          </CharString>
          <CharString index="273">
            hstemhm
            40 190 callgsubr
            return
          </CharString>
          <CharString index="274">
            59 -86 hhcurveto
            -61 -47 -27 -23 -27 hvcurveto
            8 -20 12 -19 15 -13 rrcurveto
            23 30 40 28 52 hhcurveto
            59 32 -33 -55 -94 -54 -24 -59 -87 -76 52 133 -91 hvcurveto
            -13 -6 -8 -5 -7 -9 rrcurveto
            -82 43 115 -134 135 hhcurveto
            74 68 33 92 12 hvcurveto
            return
          </CharString>
          <CharString index="275">
            12 -22 -25 7 -26 114 callgsubr
            496 269 callgsubr
            hvcurveto
            return
          </CharString>
          <CharString index="276">
            323 callsubr
            50 55 178 45 18 53 54 50 return
          </CharString>
          <CharString index="277">
            26 29 -7 8 hhcurveto
            8 15 20 11 hvcurveto
            return
          </CharString>
          <CharString index="278">
            56 10 57 181 57 49 53 50 39 return
          </CharString>
          <CharString index="279">
            4 -17 12 -19 13 -12 rlinecurve
            return
          </CharString>
          <CharString index="280">
            249 -82 callsubr
            hvcurveto
            return
          </CharString>
          <CharString index="281">
            -107 callgsubr
            146 101 callgsubr
            500 callgsubr
            return
          </CharString>
          <CharString index="282">
            rmoveto
            41 25 43 53 38 23 -23 -37 -45 -32 -43 -46 -34 vhcurveto
            -30 22 -31 28 48 vvcurveto
            return
          </CharString>
          <CharString index="283">
            289 callsubr
            97 50 hstemhm
            return
          </CharString>
          <CharString index="284">
            -140 33 -115 43 return
          </CharString>
          <CharString index="285">
            380 callgsubr
            364 -126 -84 320 callgsubr
            return
          </CharString>
          <CharString index="286">
            rmoveto
            -69 callsubr
            return
          </CharString>
          <CharString index="287">
            67 541 59 0 -20 hstemhm
            110 318 hintmask 01100000
            269 600 rmoveto
            -133 89 -12 -6 -8 -10 -6 -10 rlinecurve
            hintmask 10100000
            53 callgsubr
            130 119 -6 10 -8 10 -12 6 rlinecurve
            endchar
          </CharString>
          <CharString index="288">
            252 callgsubr
            356 -101 hlineto
            2 -19 -15 2 -25 hhcurveto
            -152 -85 -75 -112 -108 79 -100 151 -7 hvcurveto
            -176 -114 8 -17 16 -20 15 -11 rlinecurve
            165 121 return
          </CharString>
          <CharString index="289">
            30 callgsubr
            185 vlineto
            -16 36 36 -12 49 hhcurveto
            150 89 106 169 -4 hvcurveto
            162 -4 -87 78 -101 hhcurveto
            -67 -59 -42 -37 -38 hvcurveto
            endchar
          </CharString>
          <CharString index="290">
            -55 callgsubr
            endchar
          </CharString>
          <CharString index="291">
            111 callsubr
            97 369 callgsubr
            -121 507 callsubr
            return
          </CharString>
          <CharString index="292">
            50 -35 50 hstemhm
            -7 323 callgsubr
            return
          </CharString>
          <CharString index="293">
            vlineto
            -28 callgsubr
            return
          </CharString>
          <CharString index="294">
            214 callgsubr
            vhcurveto
            104 callsubr
            return
          </CharString>
          <CharString index="295">
            hlineto
            3 -53 -130 2 -32 hhcurveto
            return
          </CharString>
          <CharString index="296">
            1 rrcurveto
            1 -40 -44 1 -42 hhcurveto
            return
          </CharString>
          <CharString index="297">
            13 callsubr
            97 369 callgsubr
            -121 55 hlineto
            94 217 callsubr
            return
          </CharString>
          <CharString index="298">
            hlineto
            10 22 11 33 25 vvcurveto
            39 -25 25 -31 16 vhcurveto
            -78 40 -197 18 -61 32 -37 19 -20 45 -8 21 -9 -3 -13 -5 -8 -5 14 -48 11 -35 28 -24 rrcurveto
            94 -81 296 21 -89 vvcurveto
            -13 -8 -33 -10 -20 vhcurveto
            return
          </CharString>
          <CharString index="299">
            97 50 hstemhm
            53 53 205 53 11 41 return
          </CharString>
          <CharString index="300">
            397 104 rmoveto
            -39 -48 -36 -28 -59 hhcurveto
            -112 -42 100 105 111 46 100 112 70 51 -35 -17 18 hvcurveto
            return
          </CharString>
          <CharString index="301">
            rmoveto
            -5 vlineto
            -202 -193 24 -24 244 200 4 18 0 2 -4 20 rlinecurve
            -244 199 -23 -24 rlineto
            return
          </CharString>
          <CharString index="302">
            249 342 callsubr
            return
          </CharString>
          <CharString index="303">
            vvcurveto
            207 callgsubr
            return
          </CharString>
          <CharString index="304">
            179 42 141 52 136 279 callgsubr
            return
          </CharString>
          <CharString index="305">
            vstem
            152 callgsubr
            return
          </CharString>
          <CharString index="306">
            396 callgsubr
            170 45 56 56 return
          </CharString>
          <CharString index="307">
            -127 108 -94 119 return
          </CharString>
          <CharString index="308">
            53 82 53 hstemhm
            79 54 -13 53 hintmask 11101000
            152 callgsubr
            -81 callgsubr
            145 -71 callsubr
            hintmask 11110000
            -127 hlineto
            -16 30 -27 41 return
          </CharString>
          <CharString index="309">
            276 rmoveto
            23 -2 24 5 -1 hvcurveto
            -56 4 rlineto
            288 vlineto
            16 -8 7 -11 -8 -9 -1 -5 -9 vhcurveto
            -76 -41 rlineto
            -7 11 -22 17 5 vhcurveto
            41 13 rlineto
            -254 vlineto
            -38 -2 -24 -1 4 -23 -1 -6 rlinecurve
            return
          </CharString>
          <CharString index="310">
            245 rmoveto
            -51 -35 -66 -36 -56 17 callsubr
            return
          </CharString>
          <CharString index="311">
            vvcurveto
            53 35 39 42 37 4 -30 -17 -33 -16 -14 -28 -20 vhcurveto
            3 -8 8 -11 7 -4 rrcurveto
            24 callgsubr
            -79 -59 -56 -71 73 callgsubr
            return
          </CharString>
          <CharString index="312">
            9 -13 22 4 4 4 9 5 28 44 16 19 69 -10 65 -18 76 -28 -254 -137 rcurveline
            -21 -9 -16 -22 14 -25 19 -37 38 -35 20 -2 rrcurveto
            13 14 15 8 2 hvcurveto
            1 10 -11 51 -5 24 return
          </CharString>
          <CharString index="313">
            400 rmoveto
            172 callgsubr
            95 -71 callsubr
            return
          </CharString>
          <CharString index="314">
            48 286 49 89 50 hstemhm
            30 55 2 52 186 104 -103 53 -25 51 return
          </CharString>
          <CharString index="315">
            -53 4 -19 53 -59 4 -42 3 -47 -26 -19 -61 return
          </CharString>
          <CharString index="316">
            31 -15 52 -36 50 396 38 return
          </CharString>
          <CharString index="317">
            -38 callsubr
            vhcurveto
            -549 489 callsubr
            return
          </CharString>
          <CharString index="318">
            -78 callsubr
            -11 4 return
          </CharString>
          <CharString index="319">
            hlineto
            220 callgsubr
            return
          </CharString>
          <CharString index="320">
            292 callgsubr
            241 43 return
          </CharString>
          <CharString index="321">
            -44 -29 -30 -31 return
          </CharString>
          <CharString index="322">
            0 -40 -6 -42 -21 vhcurveto
            -39 10 -51 35 56 vvcurveto
            39 24 32 53 45 16 -24 -17 16 vhcurveto
            5 1 10 7 3 3 rrcurveto
            30 -8 -28 53 -75 hhcurveto
            -72 -45 -50 -60 -55 39 -60 73 -22 hvcurveto
            return
          </CharString>
          <CharString index="323">
            5 -213 38 160 47 416 52 hstem
            87 55 296 60 vstem
            142 381 rmoveto
            39 48 36 28 59 hhcurveto
            112 41 -99 -106 -111 -45 -100 -112 -70 -51 34 17 -18 hvcurveto
            return
          </CharString>
          <CharString index="324">
            177 callgsubr
            23 16 15 24 36 -38 15 -37 return
          </CharString>
          <CharString index="325">
            hlineto
            -69 callsubr
            73 -6 rlineto
            return
          </CharString>
          <CharString index="326">
            vhcurveto
            5 4 6 14 5 11 rrcurveto
            58 return
          </CharString>
          <CharString index="327">
            54 205 53 10 42 return
          </CharString>
          <CharString index="328">
            -52 -48 -1 -2 -31 hvcurveto
            -45 -3 -29 403 callsubr
            51 -101 callgsubr
            64 return
          </CharString>
          <CharString index="329">
            43 21 -7 7 hhcurveto
            13 16 20 12 hvcurveto
            endchar
          </CharString>
          <CharString index="330">
            hhcurveto
            -15 callgsubr
            -367 hlineto
            2 -19 3 -17 10 -14 rrcurveto
            168 212 callsubr
            -71 59 -83 117 return
          </CharString>
          <CharString index="331">
            -107 callgsubr
            100 -156 hlineto
            262 callgsubr
            102 vhcurveto
            97 callgsubr
            return
          </CharString>
          <CharString index="332">
            vstem
            151 140 rmoveto
            -102 callsubr
            return
          </CharString>
          <CharString index="333">
            rmoveto
            -115 vlineto
            -28 29 4 10 1 vhcurveto
            6 93 rlineto
            return
          </CharString>
          <CharString index="334">
            -67 -108 hlineto
            -96 -45 -37 -55 -61 56 -69 63 hvcurveto
            return
          </CharString>
          <CharString index="335">
            53 25 -50 62 hhcurveto
            62 33 45 50 10 hvcurveto
            return
          </CharString>
          <CharString index="336">
            -77 32 -89 37 84 vvcurveto
            71 62 35 76 vhcurveto
            return
          </CharString>
          <CharString index="337">
            -53 -23 52 -59 hhcurveto
            -42 -45 -29 -63 -15 hvcurveto
            return
          </CharString>
          <CharString index="338">
            221 callgsubr
            412.5 50 return
          </CharString>
          <CharString index="339">
            -150 vlineto
            -104 callsubr
            return
          </CharString>
          <CharString index="340">
            25 -12 29 23 vvcurveto
            33 14 return
          </CharString>
          <CharString index="341">
            rmoveto
            1 callsubr
            return
          </CharString>
          <CharString index="342">
            794 246 callgsubr
            return
          </CharString>
          <CharString index="343">
            308 callgsubr
            -39 -27 -22 -36 return
          </CharString>
          <CharString index="344">
            52 -37 -62 callsubr
            275.5 42 278 40 return
          </CharString>
          <CharString index="345">
            -29 -11 -25 -48 -82 hhcurveto
            return
          </CharString>
          <CharString index="346">
            -107 callgsubr
            128 -238 -87 callsubr
            return
          </CharString>
          <CharString index="347">
            -107 callgsubr
            121 -182 321 callgsubr
            55 vvcurveto
            return
          </CharString>
          <CharString index="348">
            25 50 397 callgsubr
            return
          </CharString>
          <CharString index="349">
            171 callgsubr
            13 49 -29 11 rcurveline
            -9 -28 -24 -21 -32 2 rrcurveto
            return
          </CharString>
          <CharString index="350">
            104 callgsubr
            200 callsubr
            hvcurveto
            return
          </CharString>
          <CharString index="351">
            30 callgsubr
            129 vlineto
            69 76 181 -246 rlineto
            76 -46 callgsubr
            return
          </CharString>
          <CharString index="352">
            560 -39 callgsubr
            return
          </CharString>
          <CharString index="353">
            23 callsubr
            endchar
          </CharString>
          <CharString index="354">
            -157 -103 callgsubr
          </CharString>
          <CharString index="355">
            rmoveto
            89 70 69 76 37 hvcurveto
            -18 13 -18 11 -23 8 rrcurveto
            -73 -29 -49 -45 -69 hhcurveto
            -62 -39 36 82 -47 hvcurveto
            -13 -3 -11 -6 -11 -7 rrcurveto
            -79 35 62 -82 96 hhcurveto
            return
          </CharString>
          <CharString index="356">
            -90 rmoveto
            -46 -40 28 52 68 89 20 70 22 18 -2 -3 16 hvcurveto
            -80 -41 -83 -88 vhcurveto
            return
          </CharString>
          <CharString index="357">
            139 334 callgsubr
            hstem
            170 45 56 56 return
          </CharString>
          <CharString index="358">
            -123 186 callgsubr
            return
          </CharString>
          <CharString index="359">
            317 callsubr
            hstem
            40 60 299 60 vstem
            return
          </CharString>
          <CharString index="360">
            -11 35 -41 11 5 callsubr
            return
          </CharString>
          <CharString index="361">
            -75 -224 52 211 55 61 39 266 40 return
          </CharString>
          <CharString index="362">
            290 vlineto
            42 32 48 49 58 hhcurveto
            return
          </CharString>
          <CharString index="363">
            126 -98 callsubr
            return
          </CharString>
          <CharString index="364">
            55 291 callgsubr
            return
          </CharString>
          <CharString index="365">
            55 19 20 35 30 vvcurveto
            48 -43 29 -60 -56 -37 -25 -30 -2 vhcurveto
            -1 -18 12 -13 27 -1 rrcurveto
            29 1 16 25 37 hhcurveto
            33 19 -17 -29 -57 -70 -15 -31 hvcurveto
            return
          </CharString>
          <CharString index="366">
            -43 26 -33 35 54 vvcurveto
            54 32 22 39 35 51 -20 -98 -169 -102 -112 -154 -77 -49 38 58 74 80 32 50 6 vhcurveto
            -10 22 -7 9 -14 16 rrcurveto
            return
          </CharString>
          <CharString index="367">
            73 callsubr
            -38 58 -53 23 76 callsubr
            vhcurveto
            -19 callgsubr
            51 43 -1 -1 37 hvcurveto
            18 -1 16 -1 16 -1 rrcurveto
            return
          </CharString>
          <CharString index="368">
            101 callsubr
            -97 return
          </CharString>
          <CharString index="369">
            10 29 34 4 31 hhcurveto
            22 18 -2 -3 16 hvcurveto
            -44 -12 -45 -26 -32 vhcurveto
            -35 -28 rmoveto
            -9 -16 -18 -5 -22 hhcurveto
            -46 -40 28 52 22 9 17 15 12 hvcurveto
            return
          </CharString>
          <CharString index="370">
            72 41 -40 -70 -74 -46 -36 -69 -116 -74 102 173 -79 hvcurveto
            -20 -5 -6 -5 -11 -7 rrcurveto
            -189 84 102 -122 137 hhcurveto
            109 44 77 76 return
          </CharString>
          <CharString index="371">
            550 284 callsubr
            return
          </CharString>
          <CharString index="372">
            90 292 callgsubr
            return
          </CharString>
          <CharString index="373">
            443 callgsubr
            106 10 51 callgsubr
            return
          </CharString>
          <CharString index="374">
            149 67 callsubr
            591.5 42 return
          </CharString>
          <CharString index="375">
            56 -96 114 -117 364 callsubr
            return
          </CharString>
          <CharString index="376">
            261 49 240 50 -25 40 hstemhm
            52 349 callsubr
            return
          </CharString>
          <CharString index="377">
            rmoveto
            -53 255 53 vlineto
            endchar
          </CharString>
          <CharString index="378">
            -189 187 412 callgsubr
            44 18 -11 -16 23 hvcurveto
            9 34 rlineto
            31 -29 -46 12 -37 hhcurveto
            -87 -89 -50 -106 -95 69 -95 118 return
          </CharString>
          <CharString index="379">
            57 callgsubr
            rrcurveto
            6 callgsubr
            return
          </CharString>
          <CharString index="380">
            41 rmoveto
            -1 259 rlineto
            153 -1 -90 47 -76 hhcurveto
            -80 -47 -36 -36 -33 hvcurveto
            return
          </CharString>
          <CharString index="381">
            282 callsubr
            rrcurveto
            return
          </CharString>
          <CharString index="382">
            114 44 392 50 hstemhm
            33 58 -1 54 return
          </CharString>
          <CharString index="383">
            108 44 440 callgsubr
            hstem
            41 58 return
          </CharString>
          <CharString index="384">
            52 305 49 98 50 hstemhm
            return
          </CharString>
          <CharString index="385">
            hlineto
            262 callgsubr
            114 return
          </CharString>
          <CharString index="386">
            -43 -107 -30 -17 hhcurveto
            return
          </CharString>
          <CharString index="387">
            301 callsubr
            -95 70 -93 118 60 43 24 -54 callsubr
          </CharString>
          <CharString index="388">
            709 473 callgsubr
            34 190 callgsubr
            186 213 callsubr
            hintmask 0110111111000000
            return
          </CharString>
          <CharString index="389">
            -7 callgsubr
            57 callgsubr
            return
          </CharString>
          <CharString index="390">
            rmoveto
            -27 -19 -20 -27 -27 19 -20 27 499 callsubr
            hvcurveto
            return
          </CharString>
          <CharString index="391">
            -103 callsubr
            -307 -107 callgsubr
            109 return
          </CharString>
          <CharString index="392">
            9 34 rlineto
            31 -32 -50 12 -40 hhcurveto
            -87 -89 -50 -106 return
          </CharString>
          <CharString index="393">
            305 504 callgsubr
            hstem
            41 503 callgsubr
            return
          </CharString>
          <CharString index="394">
            81 48 106 39 276 50 -31 46 return
          </CharString>
          <CharString index="395">
            171 119 130 187 return
          </CharString>
          <CharString index="396">
            52 -24 54 109 51 return
          </CharString>
          <CharString index="397">
            31 -8 -29 52 -73 hhcurveto
            return
          </CharString>
          <CharString index="398">
            56 31 54 33 54 return
          </CharString>
          <CharString index="399">
            214 callsubr
            hvcurveto
            -53 -105 -82 callsubr
            hvcurveto
            hintmask 1101111110000000
            -73 callsubr
            vhcurveto
            return
          </CharString>
          <CharString index="400">
            hlineto
            -15 7 -27 8 -8 vhcurveto
            366 -165 hlineto
            542 callgsubr
            -94 78 -83 104 54 44 23 33 36 hvcurveto
            return
          </CharString>
          <CharString index="401">
            286 vlineto
            43 33 49 52 62 299 callgsubr
            -44 -29 -30 -31 hvcurveto
            endchar
          </CharString>
          <CharString index="402">
            244 429 callgsubr
            55 54 -41 57 213 54 -4 43 hintmask 11101100
            369 400 rmoveto
            172 callgsubr
            return
          </CharString>
          <CharString index="403">
            -142 315 callgsubr
            return
          </CharString>
          <CharString index="404">
            -103 callsubr
            -1153 -107 callgsubr
            return
          </CharString>
          <CharString index="405">
            38 vvcurveto
            45 31 13 93 vhcurveto
            27 43 -2 19 hhcurveto
            11 10 21 14 hvcurveto
            return
          </CharString>
          <CharString index="406">
            261 callsubr
            -150 hlineto
            -63 -45 -33 -60 return
          </CharString>
          <CharString index="407">
            vlineto
            198 -86 callsubr
            return
          </CharString>
          <CharString index="408">
            75 callgsubr
            -89 -88 -50 -107 return
          </CharString>
          <CharString index="409">
            -240 550 50 return
          </CharString>
          <CharString index="410">
            109 44 50 108 50 233 callgsubr
            372 callsubr
            46 334 callsubr
            hintmask 1010111111000000
            return
          </CharString>
          <CharString index="411">
            -107 callgsubr
            114 -203 hlineto
            -15 -35 -48 -1 -56 hhcurveto
            -33 -40 7 8 -31 hvcurveto
            71 46 22 40 50 vvcurveto
            return
          </CharString>
          <CharString index="412">
            11 15 12 23 -20 callgsubr
            359 return
          </CharString>
          <CharString index="413">
            67 -43 50 -72 22 vhcurveto
            hintmask 11011000
            50 25 33 42 109 vvcurveto
            endchar
          </CharString>
          <CharString index="414">
            hlineto
            36 callsubr
            return
          </CharString>
          <CharString index="415">
            194 46 310 50 hstem
            83 396 callsubr
            return
          </CharString>
          <CharString index="416">
            -47 -250 -151 rcurveline
            4 -17 11 -20 13 -12 return
          </CharString>
          <CharString index="417">
            -89 -46 -65 -119 hvcurveto
            return
          </CharString>
          <CharString index="418">
            -131 -18 rlineto
            -13 -1 return
          </CharString>
          <CharString index="419">
            81 338 callgsubr
            vhcurveto
            return
          </CharString>
          <CharString index="420">
            58 270 53 return
          </CharString>
          <CharString index="421">
            -45 18 -24 17 38 vvcurveto
            32 17 25 38 63 9 -66 -93 vhcurveto
            -78 vlineto
            35 -20 -36 29 -47 367 callsubr
            return
          </CharString>
          <CharString index="422">
            rmoveto
            99 hlineto
            346 callgsubr
            hvcurveto
            return
          </CharString>
          <CharString index="423">
            301 rmoveto
            -33 -26 -52 -20 -36 -8 rrcurveto
            26 -16 -26 19 -34 hhcurveto
            return
          </CharString>
          <CharString index="424">
            -15 45 425 45 return
          </CharString>
          <CharString index="425">
            504 468 callsubr
            -75 49 101 199 callsubr
            255 53 229 53 hintmask 1011111110000000
            return
          </CharString>
          <CharString index="426">
            368 550 rmoveto
            95 -98 callsubr
            -473 -107 callgsubr
            324 -99 -125 hlineto
            return
          </CharString>
          <CharString index="427">
            -19 195 callgsubr
            return
          </CharString>
          <CharString index="428">
            35 callgsubr
            -10 -18 -4 -9 -9 hvcurveto
            10 -37 12 return
          </CharString>
          <CharString index="429">
            -68 -81 -55 27 -45 29 -28 hvcurveto
            endchar
          </CharString>
          <CharString index="430">
            163 392 callsubr
            return
          </CharString>
          <CharString index="431">
            hstemhm
            40 62 257 62 -21 10 return
          </CharString>
          <CharString index="432">
            hintmask 11011110
            -57 callgsubr
            return
          </CharString>
          <CharString index="433">
            -10 -18 -6 -9 -9 hvcurveto
            -118 40 78 -138 124 hhcurveto
            73 38 47 58 48 -26 45 -26 27 hvcurveto
            69 -15 return
          </CharString>
          <CharString index="434">
            386 callsubr
            125 55 return
          </CharString>
          <CharString index="435">
            50 -25 40 hstemhm
            47 349 callsubr
            return
          </CharString>
          <CharString index="436">
            -123 vlineto
            3 -17 -16 1 -16 hhcurveto
            return
          </CharString>
          <CharString index="437">
            208 233 callgsubr
            return
          </CharString>
          <CharString index="438">
            43 505 callgsubr
            24 1 10 rlinecurve
            return
          </CharString>
          <CharString index="439">
            186 -103 callsubr
            return
          </CharString>
          <CharString index="440">
            -354 -620 rlineto
            52 hlineto
            return
          </CharString>
          <CharString index="441">
            190 callgsubr
            239 43 return
          </CharString>
          <CharString index="442">
            -11 -18 -6 -21 -23 vvcurveto
            return
          </CharString>
          <CharString index="443">
            96 -15 46 613 46 return
          </CharString>
          <CharString index="444">
            136 callsubr
            vstem
            return
          </CharString>
          <CharString index="445">
            -41 -23 23 30 -4 hvcurveto
            -24 -2 -8 -16 -15 vvcurveto
            -31 38 -23 57 83 54 47 57 47 -37 33 -56 7 vhcurveto
            return
          </CharString>
          <CharString index="446">
            -99 hhcurveto
            -3 -1 -18 -20 -5 -15 rrcurveto
            46 -40 37 -40 -45 vvcurveto
            -42 -31 -25 -42 -93 -67 121 94 -35 vhcurveto
            return
          </CharString>
          <CharString index="447">
            9 callgsubr
            35 callgsubr
            return
          </CharString>
          <CharString index="448">
            -82 callsubr
            hvcurveto
            hintmask 1001011111100000
            -73 callsubr
            vhcurveto
            return
          </CharString>
          <CharString index="449">
            -82 callsubr
            -73 callsubr
            hvcurveto
            553 callgsubr
            return
          </CharString>
          <CharString index="450">
            18 -21 244 49 61 52 -47 46 148 239 callgsubr
            28 55 299 349 callsubr
            return
          </CharString>
          <CharString index="451">
            -406 vlineto
            13 callsubr
            return
          </CharString>
          <CharString index="452">
            -76 -30 -51 -44 -65 hhcurveto
            -57 -47 34 82 -40 hvcurveto
            -13 -3 -11 -6 -11 -7 rrcurveto
            -79 31 62 -74 91 hhcurveto
            return
          </CharString>
          <CharString index="453">
            540 108 44 -13 334 callgsubr
            hstemhm
            171 45 56 56 263 39 270 53 return
          </CharString>
          <CharString index="454">
            262 callgsubr
            114 56 46 24 21 28 vhcurveto
            -192 -103 callgsubr
          </CharString>
          <CharString index="455">
            166 67 callsubr
            274.5 45 return
          </CharString>
          <CharString index="456">
            54 127 53 return
          </CharString>
          <CharString index="457">
            hintmask 1111111111100000
            -57 -34 -52 -51 -29 11 -35 28 -36 hvcurveto
            -3 -14 -14 -2 -14 hhcurveto
            -101 -51 57 68 73 return
          </CharString>
          <CharString index="458">
            -93 -53 -95 -108 hhcurveto
            -15 -16 3 6 -15 hvcurveto
            14 31 7 38 41 9 callsubr
            return
          </CharString>
          <CharString index="459">
            100 484 175 callsubr
            return
          </CharString>
          <CharString index="460">
            -274 -6 rlineto
            270 vlineto
            196 -11 4 22 0 24 -4 19 rlinecurve
            -196 -11 rlineto
            272 vlineto
            return
          </CharString>
          <CharString index="461">
            -49 callsubr
            -38 58 -53 23 76 callsubr
            vhcurveto
            -19 callgsubr
            51 39 return
          </CharString>
          <CharString index="462">
            52 137 279 callgsubr
            return
          </CharString>
          <CharString index="463">
            vlineto
            -37 callgsubr
            return
          </CharString>
          <CharString index="464">
            223 50 -32 32 -32 47 hstemhm
            49 51 return
          </CharString>
          <CharString index="465">
            hstemhm
            94 55 263 55 return
          </CharString>
          <CharString index="466">
            106 -96 46 251 50 return
          </CharString>
          <CharString index="467">
            2 175 -21 4 -27 -3 -18 -7 rlinecurve
            2 -169 -156 9 -7 -15 7 -32 10 -15 rlinecurve
            return
          </CharString>
          <CharString index="468">
            hlineto
            -88 callsubr
            return
          </CharString>
          <CharString index="469">
            356 callgsubr
            -81 -23 vhcurveto
            return
          </CharString>
          <CharString index="470">
            -62 370 callsubr
            110 51 97 50 return
          </CharString>
          <CharString index="471">
            19 -15 312 callgsubr
            return
          </CharString>
          <CharString index="472">
            99 -98 callsubr
            return
          </CharString>
          <CharString index="473">
            -15 -103 callsubr
            return
          </CharString>
          <CharString index="474">
            hhcurveto
            -68 -46 -49 -50 -27 hvcurveto
            return
          </CharString>
          <CharString index="475">
            359 callsubr
            hstemhm
            return
          </CharString>
          <CharString index="476">
            -38 57 183 54 -2 43 return
          </CharString>
          <CharString index="477">
            33 54 124 52 -24 53 return
          </CharString>
          <CharString index="478">
            9 22 21 25 27 -2 rrcurveto
            return
          </CharString>
          <CharString index="479">
            73 55 169 50 return
          </CharString>
          <CharString index="480">
            26 49 397 callgsubr
            return
          </CharString>
          <CharString index="481">
            41 rmoveto
            652 vlineto
            -125 -17 rlineto
            23 -10 -31 10 -30 hhcurveto
            310 callsubr
            -40 return
          </CharString>
          <CharString index="482">
            299 callsubr
            471 callsubr
            hvcurveto
            return
          </CharString>
          <CharString index="483">
            -141 33 -114 42 -68 121 rrcurveto
            99 5 30 103 102 callsubr
            return
          </CharString>
          <CharString index="484">
            -32 -27 -28 -19 -41 hhcurveto
            -35 -20 14 28 34 33 23 40 49 hvcurveto
            22 27 47 43 72 vvcurveto
            return
          </CharString>
          <CharString index="485">
            82 13 50 98 86 hhcurveto
            44 25 -21 -41 -40 -24 -38 -35 -39 hvcurveto
            -36 -41 -47 -37 -53 vvcurveto
            return
          </CharString>
          <CharString index="486">
            hlineto
            10 20 12 33 27 vvcurveto
            39 -25 25 -31 16 vhcurveto
            -76 39 -206 21 -54 30 -23 13 return
          </CharString>
          <CharString index="487">
            hvcurveto
            11 -96 72 -111 53 -71 -50 callgsubr
            return
          </CharString>
          <CharString index="488">
            59 244 53 return
          </CharString>
          <CharString index="489">
            rmoveto
            229 hlineto
            hintmask 01111111
            328 callgsubr
            return
          </CharString>
          <CharString index="490">
            13 -4 rrcurveto
            -56 callgsubr
            return
          </CharString>
          <CharString index="491">
            -150 220 50 hstem
            50 283 vstem
            50 270 rmoveto
            -50 283 50 vlineto
            endchar
          </CharString>
          <CharString index="492">
            530 callgsubr
            85 396 callsubr
            return
          </CharString>
          <CharString index="493">
            221 callgsubr
            409.5 38 hstem
            return
          </CharString>
          <CharString index="494">
            -45 3 16 -34 45 hhcurveto
            32 21 15 28 1 hvcurveto
            return
          </CharString>
          <CharString index="495">
            79 -15 47 229 42 343 46 return
          </CharString>
          <CharString index="496">
            vhcurveto
            6 1 16 8 5 8 rrcurveto
            60 return
          </CharString>
          <CharString index="497">
            -63 -41 -32 -56 214 callgsubr
            return
          </CharString>
          <CharString index="498">
            369 55 470 callsubr
            39 55 return
          </CharString>
          <CharString index="499">
            48 99 552 callgsubr
            return
          </CharString>
          <CharString index="500">
            hstemhm
            50 64 -35 46 return
          </CharString>
          <CharString index="501">
            588.5 return
          </CharString>
          <CharString index="502">
            82 63 29 61 return
          </CharString>
          <CharString index="503">
            53 213 53 return
          </CharString>
          <CharString index="504">
            531 50 hstemhm
            74 53 -37 59 225 53 hintmask 11011000
            149 519 rmoveto
            175 return
          </CharString>
          <CharString index="505">
            -32 -26 -14 -34 -33 vvcurveto
            -78 76 -79 125 42 39 8 14 34 vhcurveto
            -91 -46 vlineto
            return
          </CharString>
          <CharString index="506">
            439 callgsubr
            72 125 callgsubr
            return
          </CharString>
          <CharString index="507">
            -56 -43 -30 -65 -91 -94 68 126 -82 hvcurveto
            -16 -6 -11 -10 -6 -9 rrcurveto
            -101 64 return
          </CharString>
          <CharString index="508">
            57 vvcurveto
            27 10 28 16 18 vhcurveto
            285 hlineto
            198 -86 callsubr
            return
          </CharString>
          <CharString index="509">
            420 callgsubr
            endchar
          </CharString>
          <CharString index="510">
            -15 -24 vvcurveto
            -42 return
          </CharString>
          <CharString index="511">
            186 callgsubr
            -128 105 -82 128 return
          </CharString>
          <CharString index="512">
            hlineto
            418 callsubr
            return
          </CharString>
          <CharString index="513">
            -17 -6 -22 -25 vvcurveto
            -101 85 -129 52 -70 vhcurveto
            367 callgsubr
            return
          </CharString>
          <CharString index="514">
            -35 -28 -11 -39 -26 477 callsubr
            return
          </CharString>
          <CharString index="515">
            rmoveto
            -359 -208 -5 callgsubr
            rlinecurve
            343 213 rlineto
            endchar
          </CharString>
          <CharString index="516">
            550 rmoveto
            365 callsubr
            return
          </CharString>
          <CharString index="517">
            337 callgsubr
            -50 34 -35 32 -29 hvcurveto
            return
          </CharString>
          <CharString index="518">
            hstem
            467 callsubr
            vstem
            return
          </CharString>
          <CharString index="519">
            -13 21 -17 16 -20 11 rrcurveto
            return
          </CharString>
          <CharString index="520">
            50 hstem
            111 53 return
          </CharString>
          <CharString index="521">
            470 callgsubr
            vhcurveto
            return
          </CharString>
          <CharString index="522">
            -39 54 -45 15 -5 return
          </CharString>
          <CharString index="523">
            hstemhm
            120 58 return
          </CharString>
          <CharString index="524">
            -15 rlineto
            -13 -1 return
          </CharString>
          <CharString index="525">
            254 callgsubr
            38 -31 -50 42 -87 hhcurveto
            return
          </CharString>
          <CharString index="526">
            467 54 rmoveto
            69 callgsubr
            return
          </CharString>
          <CharString index="527">
            73 126 43 543 callsubr
            263 53 vstem
            return
          </CharString>
          <CharString index="528">
            -15 39 -3 -21 282 39 -36 38 259 38 hstemhm
            45 46 167 46 return
          </CharString>
          <CharString index="529">
            -101 vlineto
            2 -20 -19 1 -19 hhcurveto
            return
          </CharString>
          <CharString index="530">
            hstemhm
            41 52 194 52 -31 53 return
          </CharString>
          <CharString index="531">
            hstemhm
            51 60 263 55 -28 60 return
          </CharString>
          <CharString index="532">
            459 callgsubr
            -46 return
          </CharString>
          <CharString index="533">
            79 -50 535 callgsubr
            return
          </CharString>
          <CharString index="534">
            45 56 56 231 53 return
          </CharString>
          <CharString index="535">
            23 8 19 26 27 hhcurveto
            return
          </CharString>
          <CharString index="536">
            59 77 -20 22 -20 hstemhm
            return
          </CharString>
          <CharString index="537">
            27 19 20 27 return
          </CharString>
          <CharString index="538">
            -28 callgsubr
            6 -32 10 -30 14 return
          </CharString>
          <CharString index="539">
            113 449 callgsubr
            return
          </CharString>
          <CharString index="540">
            444 callgsubr
            -60 return
          </CharString>
          <CharString index="541">
            -103 callsubr
            -299 -107 callgsubr
            102 return
          </CharString>
          <CharString index="542">
            39 15 -5 6 hhcurveto
            11 14 19 15 hvcurveto
            return
          </CharString>
          <CharString index="543">
            hhcurveto
            -88 hlineto
            9 callgsubr
            return
          </CharString>
          <CharString index="544">
            -95 -60 -34 -65 -46 30 -38 34 -30 hvcurveto
            return
          </CharString>
          <CharString index="545">
            rmoveto
            -105 -46 -28 -52 -97 -18 95 67 vhcurveto
            return
          </CharString>
          <CharString index="546">
            83 338 callgsubr
            return
          </CharString>
          <CharString index="547">
            49 46 48 365 callgsubr
            166 45 63 56 return
          </CharString>
          <CharString index="548">
            162 124 51 74 42 90 51 118 50 hstem
            395 53 return
          </CharString>
          <CharString index="549">
            2 -19 -10 2 -29 hhcurveto
            -133 -77 -68 -99 -103 74 -85 138 return
          </CharString>
          <CharString index="550">
            53 107 54 97 50 hstemhm
            29 53 205 53 11 41 8 115 return
          </CharString>
          <CharString index="551">
            -1 28 hhcurveto
            12 11 18 12 hvcurveto
            endchar
          </CharString>
          <CharString index="552">
            88 56 -35 44 201 54 -47 233 callgsubr
            return
          </CharString>
          <CharString index="553">
            90 106 -96 46 62 233 callgsubr
            178 45 return
          </CharString>
          <CharString index="554">
            -107 callsubr
            -858 -107 callgsubr
            return
          </CharString>
          <CharString index="555">
            302 callsubr
            113 53 82 51 hstem
            120 53 vstem
            return
          </CharString>
          <CharString index="556">
            -17 314 50 186 50 hstem
            27 122 194 53 vstem
            return
          </CharString>
          <CharString index="557">
            -138 0 38 408 54 416 callgsubr
            161 49 vstem
            return
          </CharString>
          <CharString index="558">
            -533 601 -20 257 53 hstem
            -93 54 120 28 vstem
            return
          </CharString>
          <CharString index="559">
            hvcurveto
            59 callsubr
            return
          </CharString>
          <CharString index="560">
            -38 -105 144 callgsubr
            hvcurveto
            return
          </CharString>
          <CharString index="561">
            -165 vlineto
            -31 callsubr
            return
          </CharString>
          <CharString index="562">
            134 -103 callsubr
            return
          </CharString>
          <CharString index="563">
            137 333 callgsubr
            return
          </CharString>
          <CharString index="564">
            -107 callgsubr
            353 return
          </CharString>
          <CharString index="565">
            -129 94 35 -62 callsubr
            return
          </CharString>
          <CharString index="566">
            hlineto
            335 callsubr
            return
          </CharString>
          <CharString index="567">
            349 callsubr
            215 53 return
          </CharString>
          <CharString index="568">
            -45 -3 -23 403 callsubr
            return
          </CharString>
          <CharString index="569">
            vlineto
            -25 -63 -60 -7 -57 hhcurveto
            return
          </CharString>
          <CharString index="570">
            11 15 12 23 1 13 return
          </CharString>
          <CharString index="571">
            252 49 249 50 return
          </CharString>
          <CharString index="572">
            50 -27 27 -27 42 hstemhm
            return
          </CharString>
          <CharString index="573">
            550 50 227 51 return
          </CharString>
          <CharString index="574">
            40 59 432 58 return
          </CharString>
          <CharString index="575">
            551 callsubr
            106 return
          </CharString>
          <CharString index="576">
            102 481 callsubr
            return
          </CharString>
          <CharString index="577">
            126 50 hstem
            return
          </CharString>
          <CharString index="578">
            -73 53 -76 67 return
          </CharString>
          <CharString index="579">
            hvcurveto
            hintmask 1111111101100000
            38 22 -7 7 hhcurveto
            12 13 22 9 hvcurveto
            return
          </CharString>
          <CharString index="580">
            56 10 63 2 127 39 57 28 53 -11 53 34 42 return
          </CharString>
          <CharString index="581">
            227 callgsubr
            -74 return
          </CharString>
          <CharString index="582">
            42 126 54 -22.5 34.5 return
          </CharString>
          <CharString index="583">
            114 39 521 callsubr
            return
          </CharString>
          <CharString index="584">
            vvcurveto
            -73 66 -84 130 288 callsubr
            return
          </CharString>
          <CharString index="585">
            20 195 42 313 50 hstem
            77 381 callsubr
            vstem
            return
          </CharString>
          <CharString index="586">
            34 22 47 51 62 vvcurveto
            44 -17 32 -20 22 vhcurveto
            endchar
          </CharString>
          <CharString index="587">
            -72 -46 -50 -57 return
          </CharString>
          <CharString index="588">
            51 99 50 hstemhm
            return
          </CharString>
          <CharString index="589">
            hlineto
            -12 -16 -8 -21 -30 vvcurveto
            -51 22 -49 73 -31 vhcurveto
            return
          </CharString>
          <CharString index="590">
            -8 -8 -185 183 412 callgsubr
            return
          </CharString>
          <CharString index="591">
            hlineto
            250 -196 rmoveto
            207 196 -207 hlineto
            return
          </CharString>
          <CharString index="592">
            -22 callgsubr
            13 14 -2 -6 return
          </CharString>
          <CharString index="593">
            88 70 67 78 37 hvcurveto
            -18 13 -13 7 -23 8 rrcurveto
            return
          </CharString>
          <CharString index="594">
            42 140 550 callsubr
            return
          </CharString>
          <CharString index="595">
            50 69 44 399 149 -148 53 45 50 hstemhm
            return
          </CharString>
          <CharString index="596">
            -94 -82 callsubr
            hvcurveto
            return
          </CharString>
          <CharString index="597">
            49 98 50 hstemhm
            29 55 -17 96 161 104 -103 53 return
          </CharString>
          <CharString index="598">
            -191 -103 callgsubr
          </CharString>
          <CharString index="599">
            238 89 hlineto
            -9 4 -20 -4 -3 -19 rrcurveto
            endchar
          </CharString>
          <CharString index="600">
            vhcurveto
            47 16 -3 26 hhcurveto
            12 10 23 13 hvcurveto
            endchar
          </CharString>
          <CharString index="601">
            -114 21 80 -83 124 hhcurveto
            return
          </CharString>
          <CharString index="602">
            291 callsubr
            163 53 return
          </CharString>
          <CharString index="603">
            66 rmoveto
            370 50 -370 hlineto
            return
          </CharString>
          <CharString index="604">
            -229 vlineto
            -104 callsubr
            return
          </CharString>
          <CharString index="605">
            hstemhm
            40 63 358 53 -5 12 return
          </CharString>
          <CharString index="606">
            430 callsubr
            27 -19 20 -27 return
          </CharString>
          <CharString index="607">
            52 -23 52 501 callsubr
            return
          </CharString>
          <CharString index="608">
            -41 52 97 50 hstemhm
            return
          </CharString>
          <CharString index="609">
            12 -2 12 -3 12 return
          </CharString>
          <CharString index="610">
            -189 38 74 36 return
          </CharString>
          <CharString index="611">
            rmoveto
            -18 -28 -34 return
          </CharString>
          <CharString index="612">
            -10 1 hvcurveto
            73 return
          </CharString>
          <CharString index="613">
            67 vhcurveto
            hintmask 1101111110000000
            41 73 28 41 hhcurveto
            33 14 return
          </CharString>
          <CharString index="614">
            68 hlineto
            551 callgsubr
            return
          </CharString>
          <CharString index="615">
            rmoveto
            229 callsubr
            return
          </CharString>
          <CharString index="616">
            20 -26 -32 11 -33 127 callgsubr
            return
          </CharString>
          <CharString index="617">
            6 callgsubr
            22 16 1 3 14 hvcurveto
            return
          </CharString>
          <CharString index="618">
            -63 526 callsubr
            return
          </CharString>
          <CharString index="619">
            88 56 -36 44 202 54 -7 52 97 50 hstemhm
            return
          </CharString>
          <CharString index="620">
            rmoveto
            56 28 -49 -80 hvcurveto
            return
          </CharString>
          <CharString index="621">
            20 3 20 5 17 5 return
          </CharString>
          <CharString index="622">
            hhcurveto
            -56 -24 47 106 hvcurveto
            return
          </CharString>
          <CharString index="623">
            rmoveto
            175 -203 rlineto
            return
          </CharString>
          <CharString index="624">
            rmoveto
            -50 370 50 vlineto
            return
          </CharString>
          <CharString index="625">
            78 56 31 73 return
          </CharString>
          <CharString index="626">
            108 50 hstemhm
            return
          </CharString>
          <CharString index="627">
            -63 204 50 79 50 hstem
            50 370 vstem
            return
          </CharString>
          <CharString index="628">
            330 callsubr
            40 59 return
          </CharString>
          <CharString index="629">
            hlineto
            -4 -12 -2 -13 -14 vvcurveto
            -93 78 -53 86 return
          </CharString>
          <CharString index="630">
            hlineto
            -50 -173 rlineto
            47 hlineto
            50 173 rlineto
            return
          </CharString>
          <CharString index="631">
            467 callgsubr
            502 callgsubr
            return
          </CharString>
          <CharString index="632">
            219 callgsubr
            100 53 return
          </CharString>
          <CharString index="633">
            hhcurveto
            -51 -51 28 59 60 57 32 77 26 hvcurveto
            return
          </CharString>
          <CharString index="634">
            17 -21 255 49 250 50 -25 40 hstemhm
            return
          </CharString>
          <CharString index="635">
            464 callsubr
            hstem
            return
          </CharString>
          <CharString index="636">
            108 44 91 106 -96 46 return
          </CharString>
          <CharString index="637">
            131 54 58 106 -96 46 return
          </CharString>
          <CharString index="638">
            136 50 hstemhm
            22 121 return
          </CharString>
          <CharString index="639">
            hstemhm
            120 59 257 61 return
          </CharString>
          <CharString index="640">
            106 75 50 98 50 return
          </CharString>
          <CharString index="641">
            hhcurveto
            -83 -95 -38 -106 return
          </CharString>
          <CharString index="642">
            1 8 1 11 return
          </CharString>
          <CharString index="643">
            55 260 53 return
          </CharString>
          <CharString index="644">
            -250 0 38 return
          </CharString>
          <CharString index="645">
            51 127 53 215 53 hintmask 1111001111000000
            return
          </CharString>
          <CharString index="646">
            -68 47 -71 112 31 31 8 17 28 return
          </CharString>
          <CharString index="647">
            25 26 -18 19 -26 -25 -19 -19 -26 vhcurveto
            return
          </CharString>
          <CharString index="648">
            6 callgsubr
            25 17 2 3 return
          </CharString>
          <CharString index="649">
            -279 -196 897 hstem
            100 54 vstem
            return
          </CharString>
          <CharString index="650">
            216 50 115 50 hstem
            115 55 return
          </CharString>
          <CharString index="651">
            rmoveto
            337 -98 callsubr
            return
          </CharString>
          <CharString index="652">
            -107 callgsubr
            366 hlineto
            return
          </CharString>
          <CharString index="653">
            160 -52 -160 -159 -50 159 return
          </CharString>
          <CharString index="654">
            131 54 186 53 470 callsubr
            return
          </CharString>
          <CharString index="655">
            114 callsubr
            -47 -33 -36 return
          </CharString>
          <CharString index="656">
            hlineto
            -37 callgsubr
            return
          </CharString>
          <CharString index="657">
            52 456 callsubr
            return
          </CharString>
          <CharString index="658">
            139 46 36 return
          </CharString>
          <CharString index="659">
            50 97 50 hstem
            return
          </CharString>
          <CharString index="660">
            126 50 hstemhm
            return
          </CharString>
        <CharString name=".notdef">
          -15 0 52 556 -20 61 52 hstem
          4 55 400 55 vstem
          4 hmoveto
          510 701 -510 hlineto
          55 -52 rmoveto
          400 -597 -400 hlineto
          200 250 rmoveto
          105 -209 rlineto
          60 hlineto
          -135 254 135 261 rlineto
          -60 hlineto
          -100 -206 rlineto
          -4 hlineto
          -105 206 rlineto
          -60 hlineto
          134 -255 -134 -260 rlineto
          60 hlineto
          100 209 rlineto
          endchar
        </CharString>
        <CharString name="A">
          124 callgsubr
          hstem
          10 577 vstem
          197 281 -87 callgsubr
        </CharString>
        <CharString name="AE">
          321 0 548 callgsubr
          48 263.5 54 -48.5 45 267.5 47 hstemhm
          419 58 267 44 -24 44 hintmask 01011110
          280 362 rmoveto
          131 270 rlineto
          8 -270 hlineto
          hintmask 01101101
          340 -311 rmoveto
          354 callgsubr
          hintmask 10011110
          262 -5 10 -112 rlineto
          10 -1 29 -4 28 vvcurveto
          139 vlineto
          -401 -1 -310 -633 -39 -3 rlineto
          hintmask 01011110
          -33 -2 6 -28 -1 -10 rrcurveto
          159 callgsubr
          hintmask 10011110
          -74 6 132 272 rlineto
          160 -274 hlineto
          -50 -3 rlineto
          hintmask 01011101
          -33 -2 6 -28 -1 -10 rrcurveto
          467 455 callgsubr
          endchar
        </CharString>
        <CharString name="Aacute">
          124 callgsubr
          598 -20 hstem
          10 577 vstem
          442 835 -91 callsubr
          -49 -448 -87 callgsubr
        </CharString>
        <CharString name="Abreve">
          124 callgsubr
          453 429 callsubr
          10 577 hintmask 11110100
          418 870 rmoveto
          238 callsubr
          hintmask 11101100
          -35 callgsubr
          -254 -576 -87 callgsubr
        </CharString>
        <CharString name="Acircumflex">
          124 callgsubr
          527 59 hstem
          10 577 vstem
          299 808 -84 callgsubr
          31 -438 -87 callgsubr
        </CharString>
        <CharString name="Adieresis">
          124 callgsubr
          469 94 hstem
          173 94 64 94 vstem
          377 750 -19 callsubr
          -24 -469 -87 callgsubr
        </CharString>
        <CharString name="Agrave">
          124 callgsubr
          588 -20 hstem
          10 577 vstem
          231 869 50 callsubr
          -198 -464 -87 callgsubr
        </CharString>
        <CharString name="Amacron">
          124 callgsubr
          487 53 hstem
          171 255 vstem
          426 821 462 callgsubr
          -229 -487 -87 callgsubr
        </CharString>
        <CharString name="Aogonek">
          64 -164 41 123 -62 callsubr
          194.5 45 hstem
          427 54 vstem
          197 281 rmoveto
          96 328 97 -328 rlineto
          173 -281 rmoveto
          28 -4 29 10 -1 hvcurveto
          -64 6 rlineto
          -1 hlineto
          -193 631 -19 3 -18 0 -19 -3 rlinecurve
          -194 -633 -40 -70 callsubr
          159 callgsubr
          -74 6 56 191 rlineto
          220 hlineto
          57 -193 -59 callsubr
          97 hlineto
          -30 -21 -22 -29 -37 -29 callgsubr
          34 24 24 43 18 hvcurveto
          endchar
        </CharString>
        <CharString name="Aring">
          124 callgsubr
          451 40 92 40 hstem
          211 44 92 44 vstem
          301 864 240 callgsubr
          -102 -451 -87 callgsubr
        </CharString>
        <CharString name="Atilde">
          124 callgsubr
          475 52 -2 54 hstemhm
          10 577 hintmask 11101000
          433 860 rmoveto
          -29 -7 -22 -23 -33 hhcurveto
          hintmask 11011000
          230 callsubr
          30 -11 rlineto
          428 callsubr
          hintmask 11101000
          228 callsubr
          -266 -570 -87 callgsubr
        </CharString>
        <CharString name="B">
          -2 0 42 290 40 263 42 416 callsubr
          227 62 -28 62 hintmask 11110100
          178 43 rmoveto
          288 vlineto
          61 1 rlineto
          140 2 60 -36 -111 vvcurveto
          -87 -41 -60 -144 2 vhcurveto
          -25 595 rmoveto
          hintmask 11111000
          112 7 64 -42 -91 vvcurveto
          -88 -48 -51 -130 vhcurveto
          -49 262 1 hlineto
          -109 43 66 callgsubr
          -589 vlineto
          -59 callsubr
          237 hlineto
          hintmask 11110100
          131 92 71 125 -1 hvcurveto
          -1 94 -71 56 -69 14 rrcurveto
          hintmask 11111000
          59 26 48 47 78 vvcurveto
          90 -62 76 -131 vhcurveto
          endchar
        </CharString>
        <CharString name="C">
          464 callgsubr
          498 callsubr
          hintmask 11110000
          326 690 264 callgsubr
          hintmask 11101000
          275 callgsubr
          98 callsubr
          hintmask 11110000
          158 callgsubr
          vhcurveto
          endchar
        </CharString>
        <CharString name="CR">
          -533 endchar
        </CharString>
        <CharString name="Cacute">
          464 callgsubr
          189 -20 498 callsubr
          hintmask 11111000
          326 690 264 callgsubr
          hintmask 11110100
          275 callgsubr
          98 callsubr
          hintmask 11111000
          158 callgsubr
          vhcurveto
          141 145 48 callsubr
        </CharString>
        <CharString name="Ccaron">
          464 callgsubr
          41 59 89 -20 498 callsubr
          hintmask 11111100
          483 853 -36 callsubr
          53 callgsubr
          hintmask 11111010
          156 -634 rmoveto
          98 callsubr
          hintmask 11111100
          158 callgsubr
          -183 -109 -163 -217 6 vhcurveto
          -194 5 94 -131 180 hhcurveto
          hintmask 11111010
          275 callgsubr
          endchar
        </CharString>
        <CharString name="Ccedilla">
          14 503 callsubr
          26 54 605 46 hstemhm
          40 63 258 52 48 53 -5 12 hintmask 11111110
          287 -77 rmoveto
          2 callsubr
          hintmask 10111101
          6 27 rlineto
          114 6 68 59 29 vvcurveto
          8 -4 8 -8 4 vhcurveto
          98 callsubr
          hintmask 10111110
          158 callgsubr
          -183 -109 -163 -217 6 vhcurveto
          5 -188 89 -129 169 -8 rrcurveto
          endchar
        </CharString>
        <CharString name="Ccircumflex">
          464 callgsubr
          118 59 498 callsubr
          hintmask 11111000
          324 808 -84 callgsubr
          hintmask 11110100
          318 -619 rmoveto
          98 callsubr
          hintmask 11111000
          158 callgsubr
          -183 -109 -163 -217 6 vhcurveto
          -194 5 94 -131 180 hhcurveto
          hintmask 11110100
          275 callgsubr
          endchar
        </CharString>
        <CharString name="Cdotaccent">
          464 callgsubr
          107 86 hstemhm
          40 63 176 86 96 53 -5 12 hintmask 11111100
          322 797 rmoveto
          -25 callgsubr
          4 -107 264 callgsubr
          hintmask 11111010
          275 callgsubr
          98 callsubr
          hintmask 11111100
          158 callgsubr
          vhcurveto
          endchar
        </CharString>
        <CharString name="D">
          119 0 42 593 488 callgsubr
          592 89 callsubr
          -589 117 callsubr
        </CharString>
        <CharString name="Dcaron">
          119 0 42 593 42 56 59 89 -20 472 callgsubr
          372 62 vstem
          432 855 -36 callsubr
          53 callgsubr
          -124 -694 rmoveto
          592 89 callsubr
          -589 117 callsubr
        </CharString>
        <CharString name="Dcroat">
          83 callsubr
        </CharString>
        <CharString name="E">
          -6 callgsubr
          288 callgsubr
          hintmask 01111100
          178 630 rmoveto
          -26 callgsubr
          hintmask 10111100
          -587 381 callgsubr
          hintmask 01111010
          -30 callsubr
          endchar
        </CharString>
        <CharString name="Eacute">
          -6 callgsubr
          204 -20 288 callgsubr
          hintmask 01111110
          178 630 rmoveto
          -26 callgsubr
          hintmask 10111110
          -587 381 callgsubr
          hintmask 01111101
          -30 callsubr
          266 477 48 callsubr
        </CharString>
        <CharString name="Ebreve">
          -6 callgsubr
          59 59 77 -20 22 -20 288 callgsubr
          hintmask 0111101110000000
          302 793 rmoveto
          -35 callgsubr
          hintmask 0111110110000000
          -33 13 rlineto
          hintmask 0111101110000000
          238 callsubr
          -124 -163 rmoveto
          -26 callgsubr
          hintmask 1011101110000000
          -587 381 callgsubr
          hintmask 0111101101000000
          -30 callsubr
          endchar
        </CharString>
        <CharString name="Ecaron">
          -6 callgsubr
          56 59 89 -20 288 callgsubr
          hintmask 0111111100000000
          460 853 -36 callsubr
          53 callgsubr
          hintmask 0111111010000000
          122 -683 345 callgsubr
          hintmask 1011111100000000
          -26 callgsubr
          -587 381 callgsubr
          hintmask 0111111010000000
          402 callsubr
        </CharString>
        <CharString name="Ecircumflex">
          -6 callgsubr
          133 59 288 callgsubr
          hintmask 01111110
          301 808 -84 callgsubr
          hintmask 01111101
          284 -668 345 callgsubr
          hintmask 10111110
          -26 callgsubr
          -587 381 callgsubr
          hintmask 01111101
          402 callsubr
        </CharString>
        <CharString name="Edieresis">
          -6 callgsubr
          75 94 416 callsubr
          -3 94 64 94 18 44 -32 44 hintmask 0111010010000000
          178 630 rmoveto
          -26 callgsubr
          hintmask 1011010010000000
          -587 381 callgsubr
          hintmask 0111010001000000
          -30 callsubr
          hintmask 0111101110000000
          45 392 -39 callgsubr
          endchar
        </CharString>
        <CharString name="Edotaccent">
          -6 callgsubr
          122 86 416 callsubr
          78 86 103 44 -32 44 hintmask 0111010100000000
          178 630 rmoveto
          -26 callgsubr
          hintmask 1011010100000000
          -587 381 callgsubr
          hintmask 0111111010000000
          -30 callsubr
          121 439 267 callgsubr
        </CharString>
        <CharString name="Egrave">
          -6 callgsubr
          194 -20 288 callgsubr
          hintmask 01111110
          178 630 rmoveto
          -26 callgsubr
          hintmask 10111110
          -587 381 callgsubr
          hintmask 01111101
          -30 callsubr
          193 361 49 callgsubr
        </CharString>
        <CharString name="Emacron">
          -6 callgsubr
          93 53 288 callgsubr
          hintmask 01111110
          178 630 rmoveto
          -26 callgsubr
          hintmask 10111110
          -587 381 callgsubr
          hintmask 01111101
          -30 callsubr
          -5 463 270 callsubr
        </CharString>
        <CharString name="Eng">
          149 -177 47 130 -62 callsubr
          591.5 42 hstem
          121 49 199 39 121 48 vstem
          478 675 179 callsubr
          74 -6 rlineto
          -515 vlineto
          -360 560 rlineto
          -99 hlineto
          -69 callsubr
          74 -6 rlineto
          -587 vlineto
          -51 -70 callsubr
          179 -55 callgsubr
          -74 6 rlineto
          515 vlineto
          359 -556 rlineto
          -97 -1 -25 -37 -46 hhcurveto
          -33 -14 15 27 -2 hvcurveto
          -25 2 -14 -15 -21 vvcurveto
          -32 35 -23 39 96 38 97 91 vhcurveto
          621 vlineto
          52 248 callgsubr
        </CharString>
        <CharString name="Eogonek">
          14 -154 41 113 0 callgsubr
          416 callsubr
          256 54 -43 44 -32 44 hintmask 1011110010000000
          549 39 rmoveto
          -17 -5 -16 -6 -15 -9 rrcurveto
          110 vlineto
          30 -29 -6 -10 -1 vhcurveto
          -10 -101 353 callsubr
          hintmask 1101110100000000
          -26 callgsubr
          -587 381 callgsubr
          hintmask 1011111000000000
          -33 -2 6 -28 -1 -10 rrcurveto
          431 hlineto
          -23 -20 -16 -25 -32 -29 callgsubr
          37 29 26 51 18 hvcurveto
          endchar
        </CharString>
        <CharString name="Eth">
          83 callsubr
        </CharString>
        <CharString name="Euro">
          -3 -16 42 200 45 51 45 211 42 hstemhm
          99 60 276 49 -4 10 hintmask 11111100
          362 226 rmoveto
          45 -202 vlineto
          -1 9 0 9 9 8 0 8 8 vvcurveto
          203 45 -199 hlineto
          130 16 62 81 84 hhcurveto
          67 43 -48 -70 hvcurveto
          26 2 23 10 38 vvcurveto
          60 -56 50 -90 -142 -75 -105 -148 -18 vhcurveto
          -63 -45 60 hlineto
          -1 -10 0 -10 -10 vvcurveto
          -21 -59 -45 63 vlineto
          -154 18 82 -88 121 hhcurveto
          hintmask 11111010
          92 74 52 33 8 -4 7 -6 3 hvcurveto
          -33 -36 -48 -28 -60 hhcurveto
          -100 -57 78 122 -16 hvcurveto
          endchar
        </CharString>
        <CharString name="F">
          -23 0 42 279.5 54 254.5 45 hstem
          120 60 265.5 44.5 vstem
          490 675 rmoveto
          -419 hlineto
          -29 4 -28 505 callsubr
          -7 rlineto
          -587 vlineto
          -59 callsubr
          201 -55 callgsubr
          -86 6 rlineto
          282 vlineto
          195 -11 4 22 0 24 -4 19 rlinecurve
          -195 -11 rlineto
          260 260 vlineto
          11 -107 rlineto
          10 -1 29 -4 28 vvcurveto
          endchar
        </CharString>
        <CharString name="G">
          388 callsubr
          hstemhm
          40 62 383 59 -57 53 hintmask 11111000
          402 303 95 callgsubr
          hintmask 11110100
          46 callgsubr
          hintmask 11111000
          145 callsubr
        </CharString>
        <CharString name="Gbreve">
          388 callsubr
          42 429 callsubr
          40 62 383 59 -57 53 hintmask 1111101100000000
          434 870 rmoveto
          238 callsubr
          hintmask 1111011100000000
          -35 callgsubr
          -65 -554 95 callgsubr
          hintmask 1111011010000000
          46 callgsubr
          hintmask 1111011100000000
          145 callsubr
        </CharString>
        <CharString name="Gcircumflex">
          388 callsubr
          116 59 hstemhm
          40 62 383 59 -57 53 hintmask 11111100
          315 808 -84 callgsubr
          220 -416 95 callgsubr
          hintmask 11111010
          46 callgsubr
          hintmask 11111100
          145 callsubr
        </CharString>
        <CharString name="Gdotaccent">
          388 callsubr
          105 86 hstemhm
          40 62 168 86 129 59 -57 53 hintmask 11111110
          313 797 rmoveto
          -25 callgsubr
          89 -494 95 callgsubr
          hintmask 11111101
          46 callgsubr
          hintmask 11111110
          145 callsubr
        </CharString>
        <CharString name="H">
          348 callsubr
          272.5 -62 callsubr
          472 callgsubr
          343 58 vstem
          629 635 rmoveto
          33 2 -6 28 1 10 rrcurveto
          -186 218 callsubr
          -269 -342 271 vlineto
          38 callsubr
          271 343 -273 vlineto
          -59 callsubr
          186 -55 callgsubr
          -73 6 rlineto
          587 vlineto
          endchar
        </CharString>
        <CharString name="Hbar">
          348 callsubr
          100 45 127.5 -62 callsubr
          472 callgsubr
          343 58 vstem
          521 361 rmoveto
          -342 100 342 hlineto
          108 174 rmoveto
          33 2 -6 28 1 10 rrcurveto
          -186 218 callsubr
          -124 -342 126 vlineto
          50 -72 callsubr
          -187 218 callsubr
          -124 -69 -45 69 -418 379 callgsubr
          271 343 -273 vlineto
          -59 callsubr
          186 -55 callgsubr
          -73 6 rlineto
          416 63 45 -63 126 vlineto
          endchar
        </CharString>
        <CharString name="Hcircumflex">
          348 callsubr
          272.5 -62 callsubr
          133 59 472 callgsubr
          343 58 vstem
          354 808 -84 callgsubr
          408 -84 rmoveto
          33 2 -6 28 1 10 rrcurveto
          -186 218 callsubr
          -269 -342 271 vlineto
          38 callsubr
          271 343 -273 vlineto
          -59 callsubr
          186 -55 callgsubr
          -73 6 rlineto
          587 vlineto
          endchar
        </CharString>
        <CharString name="I">
          91 callsubr
          472 callgsubr
          vstem
          179 632 rmoveto
          38 callsubr
          587 vlineto
          endchar
        </CharString>
        <CharString name="IJ">
          26 -100 47 53 -62 callsubr
          593.5 42 472 callgsubr
          49 39 113 62 vstem
          178 45 rmoveto
          587 149 callgsubr
          -187 hlineto
          -59 callgsubr
          69 638 179 callsubr
          83 -6 -2 -553 rlineto
          -100 -21 -32 -43 -33 -14 15 27 -2 vhcurveto
          -25 2 -14 -15 -21 vvcurveto
          -32 35 -23 39 101 39 107 108 vhcurveto
          2 519 rlineto
          1 hlineto
          45 248 callgsubr
        </CharString>
        <CharString name="Iacute">
          91 callsubr
          204 -20 472 callgsubr
          vstem
          297 835 -91 callsubr
          -31 -54 rmoveto
          -66 callgsubr
          587 149 callgsubr
          endchar
        </CharString>
        <CharString name="Ibreve">
          91 callsubr
          59 429 callsubr
          120 58 hintmask 11101100
          70 675 rmoveto
          -66 callgsubr
          587 149 callgsubr
          hintmask 11110100
          16 195 rmoveto
          238 callsubr
          hintmask 11101100
          -35 callgsubr
          endchar
        </CharString>
        <CharString name="Icircumflex">
          91 callsubr
          133 59 472 callgsubr
          vstem
          70 675 rmoveto
          -66 callgsubr
          587 149 callgsubr
          -74 189 -5 callsubr
        </CharString>
        <CharString name="Idieresis">
          91 callsubr
          75 94 hstemhm
          28 94 -2 58 8 94 hintmask 11110000
          122 797 rmoveto
          25 -20 22 -26 -27 -21 -22 -25 -26 21 -21 27 26 20 21 26 vhcurveto
          hintmask 11001000
          -52 -122 rmoveto
          -66 callgsubr
          587 149 callgsubr
          hintmask 11101100
          -25 169 rmoveto
          -25 -21 -22 -25 -26 21 -21 25 28 201 callgsubr
          -28 hvcurveto
          endchar
        </CharString>
        <CharString name="Idotaccent">
          91 callsubr
          122 86 hstemhm
          109 86 -75 58 hintmask 11110000
          152 797 rmoveto
          -25 callgsubr
          hintmask 11001000
          27 -165 rmoveto
          38 callsubr
          587 vlineto
          endchar
        </CharString>
        <CharString name="Igrave">
          91 callsubr
          194 -20 472 callgsubr
          vstem
          86 869 50 callsubr
          -71 -113 rmoveto
          38 callsubr
          587 vlineto
          endchar
        </CharString>
        <CharString name="Imacron">
          91 callsubr
          93 53 472 callgsubr
          vstem
          70 675 rmoveto
          -66 callgsubr
          587 149 callgsubr
          -231 146 270 callsubr
        </CharString>
        <CharString name="Iogonek">
          -234 -154 41 113 -62 callsubr
          -26.5 24 594.5 -62 callsubr
          416 callsubr
          -2 54 hintmask 10111000
          291 39 rmoveto
          -13 -4 -13 -5 -12 -6 0 6 -1 6 0 flex1
          hintmask 11011000
          -74 6 rlineto
          587 149 callgsubr
          -187 218 callsubr
          -587 vlineto
          -59 callsubr
          hintmask 11010100
          173 hlineto
          -23 -20 -16 -25 -32 -29 callgsubr
          hvcurveto
          hintmask 10110100
          37 29 26 51 18 vhcurveto
          endchar
        </CharString>
        <CharString name="Itilde">
          91 callsubr
          81 52 -2 54 416 callsubr
          hintmask 11101000
          70 675 rmoveto
          -66 callgsubr
          587 149 callgsubr
          31 185 rmoveto
          -29 -7 -22 -23 -33 hhcurveto
          hintmask 11011000
          230 callsubr
          30 -11 rlineto
          428 callsubr
          hintmask 11101000
          228 callsubr
          endchar
        </CharString>
        <CharString name="J">
          -227 -62 47 648 42 162 callsubr
          endchar
        </CharString>
        <CharString name="Jcircumflex">
          -227 -62 47 648 42 133 59 162 callsubr
          -68 189 -5 callsubr
        </CharString>
        <CharString name="K">
          57 0 376 callgsubr
          hintmask 01110000
          395 675 179 callsubr
          63 -6 -257 -313 1 315 38 callsubr
          208 vlineto
          53 64 223 -317 rlineto
          83 -46 callgsubr
          hintmask 10110000
          545 callgsubr
          39 248 callgsubr
        </CharString>
        <CharString name="L">
          -14 0 342 callgsubr
          277 44 hintmask 01111000
          450 49 80 callsubr
          hintmask 10111000
          -589 381 callgsubr
          hintmask 01111000
          119 callsubr
        </CharString>
        <CharString name="Lacute">
          -14 243 callgsubr
          202 -20 416 callsubr
          277 44 hintmask 01111100
          337 835 -91 callsubr
          309 -680 80 callsubr
          hintmask 10111100
          -589 381 callgsubr
          hintmask 01111100
          119 callsubr
        </CharString>
        <CharString name="Lcaron">
          67 243 callgsubr
          63 8 416 callsubr
          156 69 52 44 hintmask 01111110
          348 550 rmoveto
          39 45 19 66 -3 68 -10 19 -48 6 -19 -14 13 -42 -3 -85 -19 -47 rrcurveto
          -7 24 -13 7 4 vhcurveto
          102 -501 80 callsubr
          hintmask 10111110
          -589 381 callgsubr
          hintmask 01111110
          119 callsubr
        </CharString>
        <CharString name="Ldot">
          -14 0 548 callgsubr
          47 229 94 265.5 -62 callsubr
          416 callsubr
          178 92 7 44 hintmask 01111100
          402 276 99 callgsubr
          hintmask 01011010
          48 -227 80 callsubr
          hintmask 10011010
          -589 381 callgsubr
          hintmask 01011010
          119 callsubr
        </CharString>
        <CharString name="Lslash">
          -5 243 callgsubr
          hstemhm
          129 58 277 44 hintmask 01111000
          459 49 rmoveto
          -272 -4 rlineto
          239 vlineto
          152 120 -29 36 -123 -98 rlineto
          292 vlineto
          50 -72 callsubr
          -187 hlineto
          -69 callsubr
          74 -6 rlineto
          -336 vlineto
          -94 -75 28 -35 66 52 rlineto
          hintmask 10111000
          -195 381 callgsubr
          hintmask 01111000
          119 callsubr
        </CharString>
        <CharString name="M">
          253 67 callsubr
          593.5 42 hstem
          15 756 vstem
          706 47 rmoveto
          -46 585 70 6 rlineto
          10 1 4 29 -28 hhcurveto
          -109 hlineto
          -193 -468 -210 468 rlineto
          -106 hlineto
          -69 callsubr
          72 -6 -49 -589 -46 -70 callsubr
          175 -55 callgsubr
          -71 6 40 514 197 -434 10 -2 19 2 10 2 rlinecurve
          190 448 38 -532 -46 -70 callsubr
          175 183 callsubr
        </CharString>
        <CharString name="N">
          267 callsubr
          hstem
          121 49 359 48 vstem
          478 675 -54 callgsubr
        </CharString>
        <CharString name="NULL">
          -533 endchar
        </CharString>
        <CharString name="Nacute">
          267 callsubr
          204 -20 hstem
          121 49 359 48 vstem
          479 835 -91 callsubr
          195 -54 -54 callgsubr
        </CharString>
        <CharString name="Ncaron">
          267 callsubr
          56 59 89 -20 hstem
          121 49 359 48 vstem
          495 853 -36 callsubr
          53 callgsubr
          113 -59 -54 callgsubr
        </CharString>
        <CharString name="Ntilde">
          267 callsubr
          81 52 -2 54 hstemhm
          121 49 359 48 hintmask 11101100
          470 860 rmoveto
          -29 -7 -22 -23 -33 hhcurveto
          hintmask 11011100
          230 callsubr
          30 -11 rlineto
          428 callsubr
          hintmask 11101100
          228 callsubr
          -22 -176 -54 callgsubr
        </CharString>
        <CharString name="O">
          336 callsubr
          411 callsubr
          326 690 131 callsubr
        </CharString>
        <CharString name="OE">
          341 -15 46 -31 31 -31 48 263.5 54 264 47.5 -31 46 hstemhm
          40 62 337 58 267 44 -24 44 hintmask 0011101101000000
          828 hmoveto
          129 vlineto
          30 -29 -6 -10 -1 vhcurveto
          -10 -101 354 callgsubr
          hintmask 0011101110000000
          262 -5 10 -112 rlineto
          10 -1 29 -4 28 vvcurveto
          139 -368 vlineto
          hintmask 1001011110000000
          11 -34 -34 4 -29 hhcurveto
          -199 -110 -159 -223 6 hvcurveto
          -200 5 101 -125 167 hhcurveto
          hintmask 0011101110000000
          38 34 5 10 31 hvcurveto
          hintmask 0101011110000000
          -314 333 rmoveto
          182 70 130 159 1 vhcurveto
          42 36 -8 -17 30 hvcurveto
          -564 vlineto
          -17 -30 -36 -9 -43 hhcurveto
          -165 -1 -63 138 165 vvcurveto
          endchar
        </CharString>
        <CharString name="Oacute">
          336 callsubr
          189 -20 411 callsubr
          326 690 -76 callsubr
          158 191 48 callsubr
        </CharString>
        <CharString name="Obreve">
          336 callsubr
          44 429 callsubr
          467 callsubr
          hintmask 11101110
          331 793 rmoveto
          -35 callgsubr
          hintmask 11110110
          -33 13 rlineto
          hintmask 11101110
          238 callsubr
          -5 -103 131 callsubr
        </CharString>
        <CharString name="Ocircumflex">
          336 callsubr
          118 59 411 callsubr
          330 808 -84 callgsubr
          117 -688 rmoveto
          -156 -1 -59 138 165 vvcurveto
          160 callgsubr
          156 1 60 -138 -172 vvcurveto
          -173 -66 -130 -151 -1 vhcurveto
          275 327 rmoveto
          284 -4 -161 48 -98 hhcurveto
          -188 -103 -159 -221 5 hvcurveto
          -200 5 95 -125 158 hhcurveto
          198 96 158 215 -3 hvcurveto
          endchar
        </CharString>
        <CharString name="Odieresis">
          336 callsubr
          60 94 hstem
          40 59 105 94 64 94 75 58 vstem
          326 690 -76 callsubr
          -63 106 -39 callgsubr
          endchar
        </CharString>
        <CharString name="Ograve">
          336 callsubr
          179 -20 411 callsubr
          315 644 rmoveto
          156 1 60 -138 -172 vvcurveto
          -173 -66 -130 -151 -1 vhcurveto
          -156 -1 -59 138 165 vvcurveto
          160 callgsubr
          11 46 rmoveto
          -188 -103 -159 -221 5 hvcurveto
          -200 5 95 -125 158 hhcurveto
          198 96 158 215 -3 hvcurveto
          284 -4 -161 48 -98 hhcurveto
          74 29 49 callgsubr
        </CharString>
        <CharString name="Ohungarumlaut">
          336 callsubr
          411 callsubr
          589 235 callsubr
          112 2 131 callsubr
        </CharString>
        <CharString name="Omacron">
          336 callsubr
          78 53 411 callsubr
          326 690 -76 callsubr
          -113 177 270 callsubr
        </CharString>
        <CharString name="Oslash">
          147 -15 46 613 46 411 callsubr
          496 527 rmoveto
          24 -52 11 -67 -73 vvcurveto
          -173 -66 -130 -151 -1 vhcurveto
          -37 -31 7 14 -27 hvcurveto
          -44 33 rmoveto
          -54 55 -22 91 102 vvcurveto
          160 callgsubr
          65 49 -24 -40 34 hvcurveto
          112 83 rmoveto
          -49 24 -33 -57 rlineto
          48 -53 -65 12 -49 hhcurveto
          -188 -103 -159 -221 5 hvcurveto
          3 -124 38 -95 66 -55 -15 -25 rcurveline
          48 -26 13 22 rlineto
          -14 31 35 -8 39 hhcurveto
          198 96 158 215 -3 hvcurveto
          -1 106 -24 73 -33 50 rrcurveto
          endchar
        </CharString>
        <CharString name="Otilde">
          336 callsubr
          66 52 -2 54 hstemhm
          467 callsubr
          hintmask 11101100
          326 690 -76 callsubr
          hintmask 11011100
          -120 113 235 callgsubr
          endchar
        </CharString>
        <CharString name="P">
          7 67 callsubr
          235.5 42 316 42 472 callgsubr
          280 62 vstem
          229 637 rmoveto
          160 10 69 -55 -115 vvcurveto
          -108 -67 -50 -149 -20 -21 1 2 -23 vhcurveto
          312 vlineto
          -108 43 66 callgsubr
          -589 379 callgsubr
          235 vlineto
          -2 24 25 -1 23 hhcurveto
          148 122 50 163 101 -72 86 -174 hvcurveto
          endchar
        </CharString>
        <CharString name="Q">
          113 -141 59 72 41 613 46 411 callsubr
          99 333 rmoveto
          160 callgsubr
          156 1 60 -138 -172 vvcurveto
          -173 -66 -130 -151 -1 vhcurveto
          -156 -1 -59 138 165 vvcurveto
          499 -399 rmoveto
          -11 -17 -17 -5 -16 hhcurveto
          -42 -70 31 41 -79 hvcurveto
          158 29 77 147 -3 192 rrcurveto
          284 -4 -161 48 -98 hhcurveto
          -188 -103 -159 -221 5 hvcurveto
          5 -193 88 -123 148 -8 rrcurveto
          -49 77 98 -78 91 hhcurveto
          34 25 18 34 8 -3 9 -5 6 hvcurveto
          endchar
        </CharString>
        <CharString name="R">
          30 -15 237 callsubr
          532 callsubr
          hintmask 01111100
          179 634 -15 callsubr
          hintmask 10111100
          88 callgsubr
        </CharString>
        <CharString name="Racute">
          30 -15 237 callsubr
          202 -20 532 callsubr
          hintmask 01111110
          405 835 -91 callsubr
          -30 -95 -15 callsubr
          hintmask 10111110
          88 callgsubr
        </CharString>
        <CharString name="Rcaron">
          30 -15 237 callsubr
          54 59 89 -20 532 callsubr
          hintmask 01111111
          421 853 -36 callsubr
          53 callgsubr
          -112 -100 -15 callsubr
          hintmask 10111111
          88 callgsubr
        </CharString>
        <CharString name="S">
          516 callgsubr
          424 callsubr
          hintmask 11110000
          251 690 rmoveto
          -113 -3 -87 -66 -102 vvcurveto
          -100 94 -46 106 -46 vhcurveto
          hintmask 11101000
          71 callsubr
          100 -76 35 -108 45 hvcurveto
          229 callsubr
          hintmask 11110000
          87 38 -45 -67 hvcurveto
          24 31 13 44 84 -116 23 -62 -2 hvcurveto
          endchar
        </CharString>
        <CharString name="Sacute">
          516 callgsubr
          189 -20 424 callsubr
          hintmask 11111000
          251 690 rmoveto
          -113 -3 -87 -66 -102 vvcurveto
          -100 94 -46 106 -46 vhcurveto
          hintmask 11110100
          71 callsubr
          100 -76 35 -108 45 hvcurveto
          229 callsubr
          hintmask 11111000
          87 38 -45 -67 hvcurveto
          24 31 13 44 84 -116 23 -62 -2 hvcurveto
          142 145 48 callsubr
        </CharString>
        <CharString name="Scaron">
          516 callgsubr
          41 59 89 -20 424 callsubr
          hintmask 11111010
          409 853 -36 callsubr
          53 callgsubr
          -2 -353 508 callsubr
          hintmask 11111100
          124 callsubr
          hintmask 11111010
          71 callsubr
          100 -76 35 -108 45 hvcurveto
          endchar
        </CharString>
        <CharString name="Scircumflex">
          516 callgsubr
          118 59 424 callsubr
          hintmask 11110100
          250 808 -84 callgsubr
          160 -338 508 callsubr
          hintmask 11111000
          124 callsubr
          hintmask 11110100
          71 callsubr
          100 -76 35 -108 45 hvcurveto
          endchar
        </CharString>
        <CharString name="T">
          61 67 callsubr
          394 callsubr
          45 436 callgsubr
          20 675 226 callsubr
          4 callgsubr
        </CharString>
        <CharString name="Tbar">
          61 67 callsubr
          394 callsubr
          45 93 53 436 callgsubr
          428 821 462 callgsubr
          -408 -93 226 callsubr
          4 callgsubr
        </CharString>
        <CharString name="Tcaron">
          61 67 callsubr
          394 callsubr
          45 56 59 89 -20 436 callgsubr
          460 853 -36 callsubr
          53 callgsubr
          -310 -59 226 callsubr
          4 callgsubr
        </CharString>
        <CharString name="Thorn">
          71 67 callsubr
          104.5 42 317 41 89.5 -62 callsubr
          472 callgsubr
          280 67 vstem
          229 505 rmoveto
          158 71 -44 -115 -108 -67 -50 -149 -15 -27 1 1 -22 hvcurveto
          315 vlineto
          41 vmoveto
          88 149 callgsubr
          -187 218 callsubr
          -589 379 callgsubr
          103 vlineto
          -1 24 31 -1 17 hhcurveto
          153 122 50 163 101 -72 86 -179 hvcurveto
          endchar
        </CharString>
        <CharString name="U">
          100 callsubr
          0 callsubr
          endchar
        </CharString>
        <CharString name="Uacute">
          100 callsubr
          204 -20 0 callsubr
          -150 160 48 callsubr
        </CharString>
        <CharString name="Ubreve">
          100 callsubr
          59 429 callsubr
          99 57 336 47 hintmask 11101110
          323 793 rmoveto
          -35 callgsubr
          hintmask 11110110
          -33 13 rlineto
          hintmask 11101110
          238 callsubr
          119 -118 -92 callsubr
          endchar
        </CharString>
        <CharString name="Ucircumflex">
          100 callsubr
          133 59 hstem
          99 57 336 47 vstem
          322 808 -84 callgsubr
          253 -44 -92 callsubr
          endchar
        </CharString>
        <CharString name="Udieresis">
          100 callsubr
          75 94 hstem
          99 57 40 94 64 94 44 -58 callgsubr
          -371 75 -39 callgsubr
          endchar
        </CharString>
        <CharString name="Ugrave">
          100 callsubr
          194 -20 0 callsubr
          -223 44 49 callgsubr
        </CharString>
        <CharString name="Uhungarumlaut">
          100 callsubr
          hstem
          99 57 336 47 vstem
          581 235 callsubr
          236 -13 -92 callsubr
          endchar
        </CharString>
        <CharString name="Umacron">
          100 callsubr
          93 53 0 callsubr
          -421 146 270 callsubr
        </CharString>
        <CharString name="Uogonek">
          107 -172 41 116 45 603.5 -62 callsubr
          hstem
          99 57 104 54 178 47 vstem
          442 675 66 callgsubr
          -394 vlineto
          -142 -68 -64 -110 -92 -66 56 151 vhcurveto
          1 395 50 -72 callsubr
          -186 218 callsubr
          -402 vlineto
          -132 45 -109 159 -2 vhcurveto
          -26 -20 -17 -27 -33 -29 callgsubr
          37 29 26 51 18 hvcurveto
          104 33 41 94 120 vvcurveto
          388 vlineto
          48 248 callgsubr
        </CharString>
        <CharString name="Uring">
          100 callsubr
          57 40 92 40 hstem
          99 57 78 44 92 44 78 -58 callgsubr
          -289 229 58 callsubr
        </CharString>
        <CharString name="Utilde">
          100 callsubr
          81 52 -2 54 hstemhm
          99 57 336 47 hintmask 11011100
          187 757 235 callgsubr
          285 -93 -92 callsubr
          endchar
        </CharString>
        <CharString name="V">
          72 21 -21 633.5 -62 callsubr
          hstem
          5 595 vstem
          454 675 179 callsubr
          70 -6 -196 -547 -181 549 rlineto
          1 hlineto
          50 -72 callsubr
          -174 hlineto
          -69 callsubr
          54 -6 217 -630 rlineto
          42 hlineto
          234 632 19 3 33 5 -6 25 382 callgsubr
        </CharString>
        <CharString name="W">
          411 callgsubr
          hstem
          5 928 vstem
          780 675 -55 callsubr
        </CharString>
        <CharString name="Wacute">
          411 callgsubr
          204 -20 hstem
          5 928 vstem
          624 835 -91 callsubr
          352 -54 -55 callsubr
        </CharString>
        <CharString name="Wcircumflex">
          411 callgsubr
          133 59 hstem
          5 928 vstem
          481 808 -84 callgsubr
          432 -44 -55 callsubr
        </CharString>
        <CharString name="Wdieresis">
          411 callgsubr
          75 94 hstem
          355 94 64 94 vstem
          559 750 -19 callsubr
          377 -75 -55 callsubr
        </CharString>
        <CharString name="Wgrave">
          411 callgsubr
          194 -20 hstem
          5 928 vstem
          413 869 50 callsubr
          203 -70 -55 callsubr
        </CharString>
        <CharString name="X">
          73 0 42 593.5 -62 callsubr
          hstem
          10 586 vstem
          541 45 rmoveto
          -204 300 183 290 rlineto
          7 hlineto
          19 2 33 3 -6 27 1 10 rlinecurve
          -149 hlineto
          -69 callsubr
          57 -5 -148 -249 -170 250 34 3 33 3 -6 27 1 10 rlinecurve
          -164 hlineto
          -69 callsubr
          54 -6 201 -297 -200 -293 -33 -2 -33 -2 6 -28 -1 -10 rlinecurve
          158 -55 callgsubr
          -57 6 rlineto
          -1 hlineto
          165 251 171 -253 -30 -3 -33 -3 6 -27 -1 -10 rlinecurve
          161 183 callsubr
        </CharString>
        <CharString name="Y">
          47 67 callsubr
          594 -62 callsubr
          hstem
          264 60 vstem
          427 677 -40 callsubr
        </CharString>
        <CharString name="Yacute">
          47 67 callsubr
          594 -62 callsubr
          202 -20 hstem
          264 60 vstem
          442 835 -91 callsubr
          181 -52 -40 callsubr
        </CharString>
        <CharString name="Ycircumflex">
          47 67 callsubr
          594 -62 callsubr
          131 59 hstem
          264 60 vstem
          299 808 -84 callgsubr
          261 -42 -40 callsubr
        </CharString>
        <CharString name="Ydieresis">
          47 67 callsubr
          594 -62 callsubr
          73 94 hstemhm
          173 94 -3 60 7 94 hintmask 11110100
          377 750 -19 callsubr
          206 -73 179 callsubr
          69 -6 -169 -315 -178 317 102 callgsubr
          -173 hlineto
          -69 callsubr
          54 -6 rlineto
          hintmask 11001000
          204 -360 rlineto
          -229 vlineto
          -59 callsubr
          189 -55 callgsubr
          -74 6 rlineto
          227 vlineto
          202 362 rlineto
          1 hlineto
          20 3 33 5 -6 25 382 callgsubr
        </CharString>
        <CharString name="Ygrave">
          47 67 callsubr
          594 -62 callsubr
          192 -20 hstem
          264 60 vstem
          231 869 50 callsubr
          32 -68 -40 callsubr
        </CharString>
        <CharString name="Z">
          270 callgsubr
          hstem
          67 52 318 53 vstem
          437 54 10 callgsubr
        </CharString>
        <CharString name="Zacute">
          270 callgsubr
          194 -20 hstem
          67 52 318 53 vstem
          429 835 -91 callsubr
          204 -675 10 callgsubr
        </CharString>
        <CharString name="Zcaron">
          270 callgsubr
          46 59 89 -20 hstem
          67 52 318 53 vstem
          445 853 -36 callsubr
          53 callgsubr
          122 -680 10 callgsubr
        </CharString>
        <CharString name="Zdotaccent">
          270 callgsubr
          112 86 hstem
          67 52 122 86 110 53 vstem
          284 797 rmoveto
          -25 callgsubr
          153 -743 10 callgsubr
        </CharString>
        <CharString name="a">
          199 callgsubr
          366 callgsubr
          hintmask 11110100
          355 96 rmoveto
          -41 callgsubr
          hintmask 11101100
          -18 callgsubr
          hintmask 11110100
          -12 callsubr
        </CharString>
        <CharString name="aacute">
          199 callgsubr
          366 callgsubr
          hintmask 11110100
          372 635 -91 callsubr
          179 -433 rmoveto
          -41 callgsubr
          hintmask 11101100
          -18 callgsubr
          hintmask 11110100
          -12 callsubr
        </CharString>
        <CharString name="abreve">
          199 callgsubr
          29 59 366 callgsubr
          hintmask 11111010
          348 665 rmoveto
          238 callsubr
          -35 callgsubr
          -26 -556 rmoveto
          -37 -35 -53 -26 -53 hhcurveto
          -62 -38 35 60 47 33 40 87 56 41 -15 -15 24 hvcurveto
          55 -150 rmoveto
          299 vlineto
          hintmask 11100110
          153 -130 13 -49 -91 -61 -43 -54 -38 23 -10 23 2 vhcurveto
          34 4 14 65 94 hhcurveto
          81 37 -60 -65 hvcurveto
          -89 vlineto
          9 -30 -40 7 -45 hhcurveto
          hintmask 11101010
          -12 callsubr
        </CharString>
        <CharString name="acircumflex">
          199 callgsubr
          118 59 366 callgsubr
          hintmask 11111010
          229 618 -84 callgsubr
          259 -433 rmoveto
          -41 callgsubr
          hintmask 11110110
          -18 callgsubr
          hintmask 11111010
          -12 callsubr
        </CharString>
        <CharString name="acute">
          67 529 150 hstem
          186 222 vstem
          408 635 48 callsubr
        </CharString>
        <CharString name="acute.cap">
          67 539 150 hstem
          186 222 vstem
          408 645 48 callsubr
        </CharString>
        <CharString name="adieresis">
          199 callgsubr
          60 94 393 callsubr
          -22 94 64 94 0 55 hintmask 1111001100000000
          307 560 -19 callsubr
          hintmask 1110100010000000
          204 -464 rmoveto
          -41 callgsubr
          hintmask 1110010010000000
          -18 callgsubr
          hintmask 1110100010000000
          -12 callsubr
        </CharString>
        <CharString name="ae">
          234 -15 49 181 43 10 39 149 44 370 callgsubr
          62 257 62 -21 10 hintmask 1101101100000000
          579 500 rmoveto
          -69 -67 -36 -67 -43 hvcurveto
          97 -27 -123 6 -19 hhcurveto
          hintmask 1101011100000000
          -90 1 -62 -44 -56 vvcurveto
          -37 26 -9 20 2 vhcurveto
          29 3 14 70 92 hhcurveto
          86 35 -61 -64 hvcurveto
          -89 vlineto
          9 -30 -40 7 -45 hhcurveto
          hintmask 1101101010000000
          -151 -39 -76 -67 -80 56 -50 94 95 65 51 37 30 hvcurveto
          -60 35 59 -28 69 hhcurveto
          90 82 49 33 7 -3 8 -7 5 hvcurveto
          -37 -46 -44 -16 -49 hhcurveto
          -119 -40 96 99 hvcurveto
          hintmask 1111101100000000
          16 1 11 1 12 vhcurveto
          317 46 hlineto
          hintmask 1101101100000000
          372 callgsubr
          vhcurveto
          -344 -285 rmoveto
          54 42 -15 -15 24 hvcurveto
          -91 vlineto
          -34 -35 -46 -27 -59 hhcurveto
          -60 -41 32 63 49 35 38 86 hvcurveto
          332 243 rmoveto
          hintmask 1111101100000000
          73 36 -69 -82 -2 hvcurveto
          -249 hlineto
          hintmask 1101101100000000
          290 callgsubr
          endchar
        </CharString>
        <CharString name="agrave">
          199 callgsubr
          366 callgsubr
          hintmask 11110100
          161 679 50 callsubr
          30 -459 rmoveto
          -41 callgsubr
          hintmask 11101100
          -18 callgsubr
          hintmask 11110100
          -12 callsubr
        </CharString>
        <CharString name="amacron">
          199 callgsubr
          78 53 393 callsubr
          -24 255 -1 55 hintmask 11110010
          356 631 462 callgsubr
          hintmask 11111001
          -1 -482 rmoveto
          -41 callgsubr
          hintmask 11110101
          -18 callgsubr
          hintmask 11111001
          -12 callsubr
        </CharString>
        <CharString name="ampersand">
          188 -18 44 -43 50 262 37 298 45 hstemhm
          40 60 4 50 192 53 hintmask 10110110
          256 26 rmoveto
          hintmask 10111010
          -115 -41 72 69 59 37 57 67 37 hvcurveto
          15 -18 16 -19 19 -20 55 -59 60 -60 59 -49 rrcurveto
          hintmask 10110110
          -47 -51 -62 -22 -59 hhcurveto
          -24 351 rmoveto
          -4 -2 rlineto
          -48 63 -26 54 39 vvcurveto
          52 29 47 77 29 57 -22 -66 -62 -30 -72 -83 -32 vhcurveto
          380 -80 rmoveto
          34 2 -7 24 1 10 rrcurveto
          -142 hlineto
          1 callsubr
          57 -6 -14 -65 -25 -52 -31 -41 rlinecurve
          -58 50 -63 62 -55 60 -12 13 -12 13 -10 13 rrcurveto
          70 27 76 72 98 vvcurveto
          90 -82 44 -57 -96 -60 -56 -93 -46 20 -55 54 -72 vhcurveto
          hintmask 10111010
          -102 -54 -36 -80 -64 vvcurveto
          -97 67 -76 140 79 76 28 57 61 vhcurveto
          hintmask 01110110
          -50 67 63 -34 49 hhcurveto
          43 21 25 23 11 -5 11 -9 8 hvcurveto
          -18 -13 -22 -10 -20 hhcurveto
          -33 -50 29 44 -56 hvcurveto
          37 48 29 62 16 78 rrcurveto
          endchar
        </CharString>
        <CharString name="aogonek">
          -36 -174 41 118 48 -15 -21 218 43 198 44 393 callsubr
          192 54 -16 55 hintmask 1101110010000000
          355 96 rmoveto
          -41 callgsubr
          hintmask 1011101010000000
          -18 callgsubr
          hintmask 1101110010000000
          -153 -37 -79 -61 -84 56 -49 93 70 57 34 32 30 hvcurveto
          hintmask 1011110010000000
          3 -23 7 -19 14 -12 rrcurveto
          hintmask 1011110100000000
          -36 -21 -27 -32 -41 -29 callgsubr
          30 19 23 35 17 hvcurveto
          hintmask 1011110010000000
          23 1 29 8 34 vvcurveto
          endchar
        </CharString>
        <CharString name="approxequal">
          1 149 51 9 52 11 51 9 52 hstemhm
          62 334 hintmask 11101000
          91 163 rmoveto
          10 23 21 24 27 -1 rrcurveto
          hintmask 10101000
          242 callsubr
          hintmask 11111000
          362 callgsubr
          29 109 rmoveto
          10 23 21 24 27 -1 rrcurveto
          hintmask 10101000
          242 callsubr
          hintmask 10111000
          362 callgsubr
          endchar
        </CharString>
        <CharString name="aring">
          199 callgsubr
          42 40 92 40 393 callsubr
          16 44 92 44 34 55 hintmask 1111110111000000
          231 674 240 callgsubr
          126 -446 rmoveto
          hintmask 1111110011000000
          -41 callgsubr
          hintmask 1111101011000000
          -18 callgsubr
          hintmask 1111110011000000
          -12 callsubr
        </CharString>
        <CharString name="asciicircum">
          -55 204 449 hstem
          50 378 vstem
          428 204 rmoveto
          -165 449 rlineto
          -38 hlineto
          -175 -449 rlineto
          56 hlineto
          138 360 130 -360 rlineto
          endchar
        </CharString>
        <CharString name="asciitilde">
          1 230 51 9 52 hstemhm
          100 334 vstemhm
          129 244 rmoveto
          10 23 21 24 27 -1 rrcurveto
          hintmask 10100000
          242 callsubr
          hintmask 11100000
          362 callgsubr
          endchar
        </CharString>
        <CharString name="asterisk">
          67 357 346 hstem
          75 357 vstem
          270 547 rmoveto
          23 151 -25 7 -27 0 -27 -7 rlinecurve
          24 -152 -137 71 -14 -19 -9 -26 -3 -30 rlinecurve
          151 -27 -108 -111 16 -22 22 -17 26 -8 rlinecurve
          72 138 71 -137 27 9 22 16 15 21 rlinecurve
          -109 112 152 27 rlineto
          27 -9 26 -16 22 vhcurveto
          endchar
        </CharString>
        <CharString name="at">
          417 -163 40 164 49 -37 40 343 45 163 40 hstemhm
          50 50 752 48 hintmask 11011110
          564 147 rmoveto
          -33 -45 -35 -24 -50 hhcurveto
          -98 -21 88 82 12 hvcurveto
          84 12 49 92 101 hhcurveto
          55 40 -27 -16 14 hvcurveto
          130 -456 rmoveto
          -39 -61 -81 -21 -86 hhcurveto
          -240 -160 152 227 233 159 155 239 212 142 -114 -171 hvcurveto
          hintmask 10111110
          -165 -99 -106 -149 5 vhcurveto
          53 387 -48 -7 -2 -16 rlineto
          15 -29 -29 9 -41 hhcurveto
          -127 -90 -91 -144 -17 hvcurveto
          hintmask 11011110
          -137 -16 64 -68 88 hhcurveto
          61 52 34 32 35 hvcurveto
          -1 -7 rlineto
          hintmask 10111110
          -44 -4 22 -3 25 hhcurveto
          180 120 124 186 193 -160 128 -240 -270 -180 -174 -262 -247 177 -164 266 100 80 24 36 67 hvcurveto
          endchar
        </CharString>
        <CharString name="atilde">
          199 callgsubr
          56 51 9 52 366 callgsubr
          hintmask 11110101
          366 654 rmoveto
          -9 -28 -23 -21 -33 2 rrcurveto
          hintmask 11111101
          208 callsubr
          29 -13 rcurveline
          371 callsubr
          hintmask 11110101
          171 callgsubr
          14 49 rrcurveto
          -41 -547 rmoveto
          -41 callgsubr
          hintmask 11110011
          -18 callgsubr
          hintmask 11110101
          -12 callsubr
        </CharString>
        <CharString name="b">
          10 -15 47 416 52 hstem
          92 55 296 60 vstem
          147 381 rmoveto
          39 48 36 28 59 hhcurveto
          112 41 -99 -105 -111 -45 -101 -112 -70 -51 35 17 -18 hvcurveto
          610 vmoveto
          100 callgsubr
          -596 vlineto
          48 -19 rlineto
          -19 39 37 -13 52 hhcurveto
          150 89 107 169 -4 hvcurveto
          161 -4 -87 78 -101 hhcurveto
          -73 -55 -40 -37 -36 hvcurveto
          endchar
        </CharString>
        <CharString name="backslash">
          -124 -142 838 hstem
          19 369 vstem
          388 -142 rmoveto
          -310 838 rlineto
          -59 hlineto
          310 -838 rlineto
          endchar
        </CharString>
        <CharString name="bar">
          542 callsubr
          100 -196 rmoveto
          54 897 -54 hlineto
          endchar
        </CharString>
        <CharString name="braceleft">
          -227 -196 40 817 40 hstemhm
          50 73 -22 56 -40 57 hintmask 11010000
          221 701 rmoveto
          -66 -54 -50 -82 hvcurveto
          hintmask 11001000
          -77 16 -47 -76 vvcurveto
          -44 -7 -13 -16 -19 vhcurveto
          hintmask 11100000
          -7 -9 -3 -6 -34 -13 rrcurveto
          -24 vlineto
          hintmask 11001000
          31 -13 3 -2 10 -13 rrcurveto
          16 -19 7 -11 -43 -81 -16 -48 -75 vvcurveto
          hintmask 11010000
          -82 54 -50 66 30 30 4 9 15 vhcurveto
          -7 29 rlineto
          -1 -11 -10 -1 -9 hhcurveto
          -66 -36 24 73 hvcurveto
          hintmask 11001000
          50 17 73 61 vvcurveto
          84 -24 32 -27 9 vhcurveto
          6 vlineto
          27 9 24 32 84 61 -17 72 50 vvcurveto
          hintmask 11010000
          73 36 24 66 9 10 -1 -1 11 vhcurveto
          7 29 rlineto
          9 -15 -30 4 -30 hhcurveto
          endchar
        </CharString>
        <CharString name="braceright">
          -227 -196 40 817 40 hstemhm
          112 57 -40 56 -22 73 hintmask 11010000
          -3 659 rmoveto
          1 11 10 1 9 hhcurveto
          66 36 -24 -73 hvcurveto
          hintmask 11100000
          -50 -17 -72 -61 vvcurveto
          -84 24 -32 27 -9 vhcurveto
          -6 vlineto
          -27 -9 -24 -32 -84 -61 17 -73 -50 vvcurveto
          hintmask 11010000
          -73 -36 -24 -66 -9 -10 1 1 -11 vhcurveto
          -7 -29 rlineto
          -9 15 30 -4 30 hhcurveto
          66 54 50 82 hvcurveto
          hintmask 11100000
          75 -16 48 81 vvcurveto
          43 7 11 16 19 vhcurveto
          hintmask 11001000
          10 13 3 2 31 13 rrcurveto
          24 vlineto
          hintmask 11100000
          -34 13 -3 6 -7 9 rrcurveto
          -16 19 -7 13 44 76 16 47 77 vvcurveto
          hintmask 11010000
          82 -54 50 -66 -30 -30 -4 -9 -15 vhcurveto
          endchar
        </CharString>
        <CharString name="bracketleft">
          -325 -180 40 785 40 hstem
          60 54 vstem
          114 645 rmoveto
          84 40 -138 -865 138 40 -84 hlineto
          endchar
        </CharString>
        <CharString name="bracketright">
          -335 -180 40 785 40 hstem
          94 54 vstem
          94 -140 rmoveto
          -84 -40 138 865 -138 -40 84 hlineto
          endchar
        </CharString>
        <CharString name="breve">
          67 529 59 hstem
          134 304 vstem
          287 588 rmoveto
          -35 callgsubr
          -33 13 rlineto
          238 callsubr
          endchar
        </CharString>
        <CharString name="breve.cap">
          67 544 59 hstem
          134 304 vstem
          287 603 rmoveto
          -35 callgsubr
          -33 13 rlineto
          238 callsubr
          endchar
        </CharString>
        <CharString name="brokenbar">
          542 callsubr
          154 170 rmoveto
          -54 -366 54 hlineto
          -54 531 rmoveto
          54 366 -54 hlineto
          endchar
        </CharString>
        <CharString name="bullet">
          -99 230 154 hstem
          140 154 vstem
          217 230 rmoveto
          42 35 34 43 42 -35 35 -42 -43 -34 -35 -42 -43 34 -34 43 hvcurveto
          endchar
        </CharString>
        <CharString name="c">
          466 callgsubr
          425 callgsubr
          hintmask 11110000
          272 500 147 callgsubr
        </CharString>
        <CharString name="cacute">
          466 callgsubr
          425 callgsubr
          hintmask 11110000
          402 635 -91 callsubr
          66 -29 147 callgsubr
        </CharString>
        <CharString name="caron">
          180 callsubr
        </CharString>
        <CharString name="caron.cap">
          180 callsubr
        </CharString>
        <CharString name="ccaron">
          466 callgsubr
          41 59 0 -20 425 callgsubr
          hintmask 11011000
          418 663 -36 callsubr
          hintmask 11101010
          53 callgsubr
          110 -457 rmoveto
          130 callgsubr
          hintmask 11011100
          174 callgsubr
          169 callgsubr
          hintmask 11011010
          83 92 43 40 hvcurveto
          hintmask 11101010
          8 -3 6 -7 5 vhcurveto
          endchar
        </CharString>
        <CharString name="ccedilla">
          -86 503 callsubr
          26 49 419 47 hstemhm
          40 60 163 52 42 48 -7 10 hintmask 11111110
          189 -77 rmoveto
          2 callsubr
          hintmask 10111101
          6 26 rlineto
          81 3 86 41 39 vvcurveto
          8 -3 6 -7 5 vhcurveto
          130 callgsubr
          hintmask 11111110
          174 callgsubr
          -154 -80 -126 -155 2 hvcurveto
          2 -122 55 -97 109 -13 rrcurveto
          endchar
        </CharString>
        <CharString name="ccircumflex">
          466 callgsubr
          118 59 425 callgsubr
          hintmask 11110100
          259 618 -84 callgsubr
          272 -442 rmoveto
          130 callgsubr
          hintmask 11111000
          174 callgsubr
          169 callgsubr
          hintmask 11110100
          83 92 43 40 8 -3 6 -7 5 hvcurveto
          endchar
        </CharString>
        <CharString name="cdotaccent">
          466 callgsubr
          61 86 hstemhm
          40 60 114 86 57 48 -7 10 hintmask 11010100
          272 500 rmoveto
          169 callgsubr
          hintmask 11010010
          83 92 43 40 8 -3 6 -7 5 hvcurveto
          130 callgsubr
          hintmask 11010100
          174 callgsubr
          hvcurveto
          hintmask 11111100
          -15 61 267 callgsubr
        </CharString>
        <CharString name="cedilla">
          67 503 callsubr
          hstem
          326 52 vstem
          312 18 rmoveto
          -35 hlineto
          -25 -95 rlineto
          2 callsubr
          endchar
        </CharString>
        <CharString name="cedilla.cap">
          67 503 callsubr
          hstem
          326 52 vstem
          312 18 rmoveto
          -35 hlineto
          -25 -95 rlineto
          2 callsubr
          endchar
        </CharString>
        <CharString name="cent">
          -65 -16 49 425 42 hstemhm
          50 60 126.5 54 76.5 48 -7 10 hintmask 11111000
          293 592 rmoveto
          -19 6 -24 -1 -17 -5 7 -95 rcurveline
          -127 -21 -66 -117 3 -140 2 -132 63 -101 124 -2 -6 -86 rcurveline
          17 -6 24 0 19 6 -5 90 rcurveline
          hintmask 11110100
          68 11 62 35 33 vvcurveto
          8 -3 6 -7 5 vhcurveto
          -37 -47 -45 -16 -48 hhcurveto
          -125 -33 108 96 118 49 103 107 hvcurveto
          hintmask 11111000
          73 27 -49 -46 1 hvcurveto
          27 21 10 36 52 -47 37 -80 2 hvcurveto
          endchar
        </CharString>
        <CharString name="circumflex">
          67 618 59 hstem
          110 318 vstem
          298 674 -5 callsubr
        </CharString>
        <CharString name="circumflex.cap">
          67 618 59 hstem
          110 318 vstem
          298 674 -5 callsubr
        </CharString>
        <CharString name="colon">
          -361 -15 94 212 94 hstem
          40 92 vstem
          86 -15 99 callgsubr
          306 vmoveto
          281 callgsubr
        </CharString>
        <CharString name="comma">
          -361 -17 94 hstem
          79 53 vstem
          86 77 140 callgsubr
        </CharString>
        <CharString name="copyright">
          105 42 43 79 40 223 35 75 43 hstem
          50 50 103 47 133 32 123 50 vstem
          320 580 rmoveto
          -161 -109 -107 -162 -161 108 -108 161 163 106 108 160 163 -108 107 -160 hvcurveto
          -43 vmoveto
          125 93 -88 -139 -135 -89 -90 -129 -131 -89 90 135 131 85 96 135 hvcurveto
          95 -128 rmoveto
          31 -27 22 -49 -90 -47 -73 -89 1 vhcurveto
          -77 1 41 -59 83 hhcurveto
          48 41 26 22 8 -2 3 -4 3 hvcurveto
          -21 -27 -26 -1 -21 hhcurveto
          -72 -15 54 52 63 27 54 52 37 17 -21 -24 hvcurveto
          15 17 9 18 hvcurveto
          endchar
        </CharString>
        <CharString name="currency">
          45 87 48 287 48 hstem
          103 54 275 54 vstem
          486 278 rmoveto
          51 -15 43 -27 33 vhcurveto
          84 74 -14 19 -9 9 -17 10 rlinecurve
          -75 -83 rlineto
          23 -32 -40 13 -47 hhcurveto
          -50 -43 -15 -25 -32 hvcurveto
          -79 87 -17 -10 -9 -9 -14 -19 rlinecurve
          90 -80 rlineto
          -24 -32 -13 -41 -48 vvcurveto
          -46 12 -40 22 -31 vhcurveto
          -87 -78 14 -19 9 -9 17 -10 rlinecurve
          76 84 rlineto
          -27 33 43 -15 51 hhcurveto
          49 42 13 25 32 hvcurveto
          72 -80 17 10 9 9 14 19 rlinecurve
          -81 72 rlineto
          25 32 14 42 49 vvcurveto
          -190 -143 rmoveto
          -83 -56 58 85 85 56 59 83 82 54 -59 -85 -85 -54 -58 -82 hvcurveto
          endchar
        </CharString>
        <CharString name="d">
          2 531 callgsubr
          hstemhm
          40 60 297 55 hintmask 01111000
          193 callsubr
          hintmask 10111000
          55 -365 rmoveto
          658 vlineto
          306 callgsubr
          hintmask 01111000
          363 callgsubr
          hintmask 10111000
          387 callsubr
          endchar
        </CharString>
        <CharString name="dagger">
          -33 463 52.5 hstemhm
          218 64 -59.5 55.5 149 13 hintmask 11010000
          281 511 rmoveto
          360 callsubr
          hintmask 10110000
          146 10 7 -616 14 -4 21 0 14 4 rlinecurve
          6 616 156 498 callgsubr
          endchar
        </CharString>
        <CharString name="daggerdbl">
          -33 268 52.5 142.5 52.5 hstemhm
          218 64 -59 54 150 13 hintmask 11101000
          279 316 rmoveto
          2 152 156 498 callgsubr
          -146 -9 360 callsubr
          146 10 2 -152 -158 9 -7 -15 7 -32 10 -15 rlinecurve
          hintmask 11011000
          148 10 4 -421 14 -4 22 0 14 4 rlinecurve
          4 421 158 498 callgsubr
          endchar
        </CharString>
        <CharString name="dcaron">
          45 531 callgsubr
          215 10 hstemhm
          40 60 297 55 57 59 hintmask 01111110
          193 callsubr
          55 293 rmoveto
          306 callgsubr
          363 callgsubr
          hintmask 10111110
          387 callsubr
          -63 8 rlineto
          116 677 rmoveto
          273 callgsubr
          39 45 15 66 -3 68 rrcurveto
          endchar
        </CharString>
        <CharString name="dcroat">
          16 531 callgsubr
          34 46 hstemhm
          40 60 297 55 hintmask 01111100
          193 callsubr
          132 133 rmoveto
          46 -77 432 callgsubr
          -76 -46 76 -62 vlineto
          16 -36 -36 12 -49 hhcurveto
          -150 -90 -106 -169 4 hvcurveto
          363 callgsubr
          hintmask 10111100
          387 callsubr
          -63 8 rlineto
          498 vlineto
          endchar
        </CharString>
        <CharString name="degree">
          -226 479 39 122 38 hstem
          50 45 117 45 vstem
          50 579 rmoveto
          -59 43 -41 61 59 44 41 59 60 -43 39 -60 -59 -45 -39 -60 vhcurveto
          45 1 rmoveto
          35 23 25 36 35 23 -25 -36 -35 -22 -26 -36 -35 -24 26 36 vhcurveto
          endchar
        </CharString>
        <CharString name="dieresis">
          67 560 94 hstem
          129 94 64 94 vstem
          177 245 callsubr
          endchar
        </CharString>
        <CharString name="dieresis.cap">
          67 560 94 hstem
          129 94 64 94 vstem
          177 245 callsubr
          endchar
        </CharString>
        <CharString name="divide">
          -63 185 92 vstem
          50 316 517 callsubr
          -189 -214 99 callgsubr
          284 vmoveto
          281 callgsubr
        </CharString>
        <CharString name="dollar">
          -75 -16 42 524 46 hstemhm
          53 55 89 52.5 92.5 49 -24 51 hintmask 11110100
          252 677 rmoveto
          -18 6 -24 -1 -16 -5 6 -84 rcurveline
          -82 -13 -65 -55 -79 vvcurveto
          -81 86 -47 97 -37 vhcurveto
          80 -32 51 -22 -75 vvcurveto
          -87 -70 -39 -74 -72 -54 36 65 -18 vhcurveto
          -24 -15 -21 -23 -57 84 -37 76 -5 hvcurveto
          -6 -83 16 -5 24 -1 18 6 rlinecurve
          -5 84 rlineto
          106 14 65 84 87 vvcurveto
          91 -70 34 -90 34 vhcurveto
          -66 25 -84 35 73 vvcurveto
          58 54 30 70 vhcurveto
          hintmask 11111000
          80 30 -38 -56 hvcurveto
          21 28 10 39 68 -86 21 -58 2 hvcurveto
          endchar
        </CharString>
        <CharString name="dotaccent">
          67 607 86 hstem
          116 86 vstem
          159 607 267 callgsubr
        </CharString>
        <CharString name="dotaccent.cap">
          67 607 86 hstem
          116 86 vstem
          159 607 267 callgsubr
        </CharString>
        <CharString name="dotlessi">
          537 callsubr
          215 callgsubr
          endchar
        </CharString>
        <CharString name="dotlessj">
          -304 -224 47 hstem
          -60 39 121 55 vstem
          155 500 rmoveto
          547 callgsubr
          56 -6 rlineto
          -488 128 callsubr
          endchar
        </CharString>
        <CharString name="dvBH_N">
          -71 527 callsubr
          52 54 117 96 -86 53 206 36 hintmask 11101011
          473 600 rmoveto
          -96 -107 callgsubr
          96 -98 callsubr
          hintmask 11011011
          -317 15 rmoveto
          390 callsubr
          hvcurveto
          104 callsubr
          -47 callsubr
          -115 -6 callsubr
          57 81 -1 -4 68 hvcurveto
          -138 -66 rlineto
          hintmask 11101101
          -48 -23 -28 -12 -26 -16 -20 -12 -17 -19 12 -25 -80 callsubr
          209 121 rcurveline
          69 vlineto
          hintmask 11101011
          4 -48 -160 3 -34 hhcurveto
          170 vlineto
          hintmask 11011011
          258 callgsubr
          endchar
        </CharString>
        <CharString name="dvB_N">
          -218 403 50 97 50 hstemhm
          43 54 -2 96 hintmask 11100000
          152 callgsubr
          349 -98 callsubr
          -13 -424 rmoveto
          -17 -30 -34 69 callsubr
          272 -184 rmoveto
          -19 72 -9 -15 -11 -14 -13 -13 rlinecurve
          -185 183 rlineto
          392 callgsubr
          53 14 -12 -15 27 hvcurveto
          9 34 rlineto
          19 -19 -41 24 -61 hhcurveto
          -87 -89 -50 -106 -83 52 -83 92 -20 hvcurveto
          hintmask 11010000
          -26 -12 320 callsubr
          rrcurveto
          endchar
        </CharString>
        <CharString name="dvCH_N">
          103 -347 56 180 488 callsubr
          46 473 callsubr
          hintmask 1110110100101000
          428 -226 rmoveto
          -104 callsubr
          314 vlineto
          74 55 44 94 119 vvcurveto
          hintmask 1110110101011000
          74 -23 60 -53 27 vhcurveto
          61 136 -71 callsubr
          -669 -107 callgsubr
          480 344 callgsubr
          hintmask 1111000101101000
          259 callsubr
          hintmask 1110111100101000
          215 callsubr
          hintmask 1110110100101000
          398 callsubr
          hintmask 1110110010101000
          221 callsubr
          hlineto
          94 -191 -100 callgsubr
          endchar
        </CharString>
        <CharString name="dvC_N">
          -161 385 50 115 50 hstemhm
          115 55 -19 96 hintmask 11100000
          376 600 rmoveto
          -401 -107 callgsubr
          401 -98 callsubr
          -13 -165 rmoveto
          64 callsubr
          -61 44 -70 86 -19 vhcurveto
          hintmask 11010000
          -65 -26 -21 -10 -16 -21 -51 callsubr
          218 101 rcurveline
          -23 97 rlineto
          -67 -36 -71 -39 -59 hhcurveto
          hintmask 11100000
          -15 callgsubr
          endchar
        </CharString>
        <CharString name="dvDDH_DDHA">
          6 -246 44 160 48 54 49 38 44 160 48 54 49 48 50 hstemhm
          62 54 155 45 14 53 43 50 vstemhm
          316 -114 rmoveto
          399 callgsubr
          393 vmoveto
          399 callgsubr
          hintmask 1111111101100000
          67 -108 rmoveto
          58 28 35 50 49 vvcurveto
          70 -70 31 -44 vhcurveto
          350 callsubr
          36 64 139 472 callsubr
          73 181 vlineto
          252 callgsubr
          340 -52 hlineto
          442 callsubr
          20 19 2 4 17 hvcurveto
          -48 vlineto
          442 callsubr
          122 80 77 74 70 -70 31 -44 hvcurveto
          350 callsubr
          45 64 130 472 callsubr
          endchar
        </CharString>
        <CharString name="dvDD_GA">
          -40 94 276 callgsubr
          84 52 8 53 128 53 -45 53 8 39 hintmask 1101111010000000
          386 550 rmoveto
          132 -98 callsubr
          -528 -107 callgsubr
          343 16 callgsubr
          endchar
        </CharString>
        <CharString name="dvDD_N">
          -82 -350 56 245 50 93 276 callgsubr
          43 528 callgsubr
          hintmask 1110111011000000
          294 -49 rmoveto
          -173 vlineto
          -104 callsubr
          365 vlineto
          hintmask 1110111011010000
          42 22 25 38 48 231 callgsubr
          hintmask 1111011010100000
          121 callsubr
          88 109 -71 callsubr
          -487 -107 callgsubr
          325 227 callsubr
          hintmask 1110111011010000
          103 callsubr
          rrcurveto
          hintmask 1110111101000000
          -94 70 77 -39 86 hhcurveto
          16 14 1 3 14 hvcurveto
          -97 -46 vlineto
          -52 -48 -1 -2 -31 hvcurveto
          -45 -3 -29 403 callsubr
          51 -101 callgsubr
          121 -256 -100 callgsubr
          endchar
        </CharString>
        <CharString name="dvDH_N">
          -144 550 50 -22 37 hstemhm
          61 56 31 54 -49 96 -14 54 hintmask 10110100
          403 600 rmoveto
          -68 -107 callgsubr
          68 -98 callsubr
          -100 -191 rmoveto
          -36 -11 -31 -12 -24 -16 rrcurveto
          hintmask 01110100
          -40 9 -55 40 67 204 callsubr
          -75 51 -49 65 -16 vhcurveto
          hintmask 10101000
          -82 -33 -21 -10 -16 -21 -51 callsubr
          240 109 rcurveline
          -22 89 rlineto
          -57 -31 -69 -46 -63 hhcurveto
          hintmask 10110100
          -51 -51 28 59 60 57 32 77 26 189 callgsubr
          endchar
        </CharString>
        <CharString name="dvD_N">
          -54 -129 56 476 490 callsubr
          hintmask 11110100
          379 76 rmoveto
          35 -47 17 -39 23 -46 -93 callgsubr
          167 callgsubr
          hvcurveto
          hintmask 11110010
          30 callsubr
          122 126 vlineto
          110 callgsubr
          -111 82 -85 100 -21 hvcurveto
          hintmask 11101010
          -115 -46 -21 -10 -16 -21 -51 callsubr
          rrcurveto
          283 -62 -100 callgsubr
          endchar
        </CharString>
        <CharString name="dvGH_N">
          -190 550 50 hstemhm
          33 58 -1 54 -35 96 hintmask 10100000
          445 175 rmoveto
          -19 87 rlineto
          -58 -32 -88 -46 -61 17 callsubr
          hintmask 11000000
          274 callgsubr
          251 -98 callsubr
          -378 86 callsubr
          -50 72 -30 vhcurveto
          hintmask 10100000
          -24 -24 -13 -30 -38 vvcurveto
          -73 50 -50 68 -17 vhcurveto
          hintmask 10010000
          -70 -28 -21 -10 -16 -21 -51 callsubr
          rrcurveto
          endchar
        </CharString>
        <CharString name="dvG_N">
          -250 550 50 hstemhm
          92 96 -77 53 hintmask 10100000
          164 550 rmoveto
          144 -98 callsubr
          -318 240 callsubr
          230 -115 rmoveto
          -17 34 rlineto
          hintmask 11000000
          -256 -127 -21 -10 -16 -21 -51 callsubr
          rrcurveto
          endchar
        </CharString>
        <CharString name="dvJH_N">
          -8 33 54 124 52 -43 52 -33 443 callsubr
          hintmask 1010111100000000
          592 309 rmoveto
          -26 -28 -77 -11 -88 hhcurveto
          -11 -27 1 1 -14 hvcurveto
          hintmask 1001111100000000
          11 -14 -18 7 -21 hhcurveto
          hintmask 1100111100000000
          -3 callgsubr
          119 207 -71 callsubr
          -557 -107 callgsubr
          297 -97 -150 hlineto
          -63 -45 -33 -60 471 callsubr
          501 callgsubr
          -79 callgsubr
          hvcurveto
          hintmask 1010111110000000
          19 -4 20 -7 18 vhcurveto
          -4 24 34 -3 42 hhcurveto
          59 33 8 13 19 hvcurveto
          33 -51 rmoveto
          -20 31 rlineto
          hintmask 1010111101000000
          -180 -109 -20 -11 -14 -24 15 -23 rlinecurve
          130 callsubr
          rrcurveto
          endchar
        </CharString>
        <CharString name="dvJ_N">
          -30 158 56 336 50 hstemhm
          254 115 -50 48 hintmask 11010000
          511 600 rmoveto
          -536 -107 callgsubr
          536 -98 callsubr
          hintmask 11100000
          -232 -515 rmoveto
          -20 -11 -14 -24 15 -23 130 callsubr
          245 167 rcurveline
          hintmask 11010000
          144 -85 -147 64 -99 34 callsubr
          45 -26 27 hvcurveto
          69 -15 88 -54 58 -75 rrcurveto
          endchar
        </CharString>
        <CharString name="dvKH_N">
          -28 56 47 40 45 callsubr
          63 -240 rmoveto
          -30 -69 -76 -13 -62 hhcurveto
          hintmask 11111110
          439 callgsubr
          64 125 callgsubr
          333 -98 callsubr
          -538 -107 callgsubr
          143 hlineto
          18 -38 15 -44 -52 vvcurveto
          -26 -3 -41 -10 -31 vhcurveto
          5 -17 -20 5 -20 hhcurveto
          -47 -22 -23 -33 -95 132 -106 174 -15 hvcurveto
          -219 -58 364 callgsubr
          17 -39 35 -38 19 -3 13 -1 17 14 535 callsubr
          -7 42 -3 24 409 128 rcurveline
          endchar
        </CharString>
        <CharString name="dvK_N">
          38 476 callsubr
          -15 96 176 53 hintmask 10111010
          356 195 callsubr
          184 -98 callsubr
          -603 126 callsubr
          -81 58 -73 82 -18 hvcurveto
          hintmask 11010110
          -39 -19 -14 -8 -14 -8 -20 -12 -17 -19 12 -25 -80 callsubr
          176 102 rcurveline
          -147 vlineto
          -104 callsubr
          284 vlineto
          44 33 49 53 63 299 callgsubr
          -45 -30 -30 -31 hvcurveto
          endchar
        </CharString>
        <CharString name="dvM_N">
          -171 464 callsubr
          hstemhm
          118 53 -45 96 hintmask 11100000
          428 293 rmoveto
          -27 2 -44 2 -47 2 rrcurveto
          1 -46 -51 1 -42 hhcurveto
          249 215 -71 callsubr
          -397 -107 callgsubr
          129 -248 -87 callsubr
          38 34 0 -1 31 hvcurveto
          32 -1 28 -1 26 -2 rrcurveto
          hintmask 11010000
          0 -179 -84 -26 -16 vhcurveto
          -20 -12 -17 -19 12 -25 -80 callsubr
          206 119 rcurveline
          endchar
        </CharString>
        <CharString name="dvNG_GA">
          -5 94 276 callgsubr
          82 52 8 53 128 53 -45 53 8 39 hintmask 1101111010000000
          384 550 rmoveto
          168 -98 callsubr
          -562 -107 callgsubr
          341 16 callgsubr
          79 -35 rmoveto
          -102 callsubr
          endchar
        </CharString>
        <CharString name="dvNG_MA">
          -5 -46 49 91 276 callgsubr
          82 52 9 53 127 53 -45 53 8 39 hintmask 1101110110000000
          323 1 rmoveto
          -30 1 rlineto
          1 -25 -30 0 -42 hhcurveto
          101 vlineto
          -7 23 24 -3 24 hhcurveto
          20 19 2 4 17 hvcurveto
          hintmask 1110111101000000
          61 450 rmoveto
          169 -98 callsubr
          -563 -107 callgsubr
          341 227 callsubr
          hintmask 1101110110100000
          103 callsubr
          35 -46 36 -33 38 -22 rrcurveto
          -122 vlineto
          -34 -1 -19 -71 callgsubr
          -34 49 -57 23 76 callsubr
          vhcurveto
          -19 callgsubr
          hintmask 1101110110000000
          51 28 0 -1 23 hvcurveto
          9 8 -1 -1 8 hvcurveto
          -172 vlineto
          -104 callsubr
          371 vlineto
          hintmask 1101111110100000
          35 23 20 35 43 231 callgsubr
          hintmask 1110111101000000
          121 callsubr
          79 -35 rmoveto
          -102 callsubr
          endchar
        </CharString>
        <CharString name="dvNY_CA">
          495 121 51 -47 44 77 42 90 51 -44 50 115 50 hstemhm
          407 54 78 53 263 53 hintmask 1000111110000000
          1053 -86 callgsubr
          -1063 -107 callgsubr
          865 hlineto
          hintmask 0110111110000000
          -290 vlineto
          -58 -38 -65 -33 -54 hhcurveto
          -15 callgsubr
          -317 497 callgsubr
          112 hlineto
          -25 -13 -21 -22 -11 -29 -24 -17 -30 -11 -29 -5 rrcurveto
          hintmask 1011011110000000
          82 -7 -74 167 callsubr
          5 6 0 5 hhcurveto
          22 23 4 6 19 hvcurveto
          hintmask 0100111110000000
          -65 11 59 -66 104 hhcurveto
          54 44 18 31 44 hvcurveto
          -166 -103 callgsubr
        </CharString>
        <CharString name="dvN_N">
          -229 275 141 134 50 hstem
          331 42 vstem
          315 600 rmoveto
          -340 -107 callgsubr
          340 -98 callsubr
          -245 -184 rmoveto
          -16 -15 -6 -19 -6 hvcurveto
          -3 -9 -2 -9 -2 -10 -6 -33 2 -34 -12 flex1
          205 callsubr
          228 135 rcurveline
          54 vlineto
          19 -36 -175 76 -92 hhcurveto
          endchar
        </CharString>
        <CharString name="dvPH_N">
          12 183 38 140 52 137 50 hstemhm
          90 59 -46 100 175 53 hintmask 11110100
          149 550 -39 callsubr
          138 -98 callsubr
          -579 -107 callgsubr
          100 -156 hlineto
          -116 44 -76 78 -19 vhcurveto
          hintmask 11101100
          -35 -16 -23 -11 -22 -13 -20 -12 -17 -19 12 -25 18 -38 37 -37 19 -2 13 -1 16 15 1 8 1 6 -2 15 -3 17 -8 47 rcurveline
          76 44 103 59 rlineto
          -212 vlineto
          -104 callsubr
          287 vlineto
          43 33 48 51 170 callgsubr
          -53 -44 -28 -30 -31 hvcurveto
          endchar
        </CharString>
        <CharString name="dvP_N">
          -211 520 callgsubr
          hintmask 11100000
          398 247 rmoveto
          -11 97 rlineto
          -65 -30 -58 -42 -62 hhcurveto
          -80 -21 52 149 hvcurveto
          112 214 -71 callsubr
          -360 -107 callgsubr
          87 -140 hlineto
          -119 46 -77 89 -16 vhcurveto
          hintmask 11010000
          -39 -19 -25 -11 -23 -14 327 callgsubr
        </CharString>
        <CharString name="dvSHA_MatraVocalicR">
          51 -204 42 440 49 357 callsubr
          139 43 35 44 50 53 hintmask 1101011110000000
          352 callsubr
          364 -504 rmoveto
          hintmask 1110011110000000
          570 145 vlineto
          38 callgsubr
          514 callgsubr
          rrcurveto
          -27 30 66 -26 78 hhcurveto
          21 23 2 4 23 hvcurveto
          -262 vlineto
          -53 -20 -41 -34 -59 vvcurveto
          -62 48 -51 75 41 50 13 35 28 vhcurveto
          -8 10 -10 11 -21 16 rrcurveto
          -34 -29 -34 -9 -24 hhcurveto
          -40 -32 19 38 hvcurveto
          hintmask 1101011110000000
          52 40 23 62 10 vhcurveto
          endchar
        </CharString>
        <CharString name="dvSH_VA.aSimp">
          373 108 44 51 108 90 52 97 461 callgsubr
          56 533 callgsubr
          731 48 callgsubr
          200 207 -103 callsubr
          -941 hlineto
          -17 7 -23 8 -10 vhcurveto
          106 -95 callsubr
          430 -156 hlineto
          280 callsubr
        </CharString>
        <CharString name="dvS_N">
          -50 460 callgsubr
          195 45 57 96 vstem
          576 260 rmoveto
          -22 32 -6 -3 rlineto
          66 -66 -44 34 -74 148 callgsubr
          283 -98 callsubr
          -517 -107 callgsubr
          172 -2 callgsubr
          46 29 -18 -52 52 hvcurveto
          -190 -99 -21 -11 -16 -20 -51 callsubr
          rrcurveto
          endchar
        </CharString>
        <CharString name="dvTH_N">
          -174 550 554 callgsubr
          55 46 -7 96 61 56 hintmask 10101000
          366 600 rmoveto
          -29 -107 callgsubr
          29 -98 callsubr
          hintmask 01101000
          -200 15 rmoveto
          454 callgsubr
          hvcurveto
          135 callsubr
          -17 callsubr
          18 -101 65 -76 100 -17 rrcurveto
          hintmask 10011000
          -110 -44 -21 -10 -16 -21 -51 callsubr
          243 111 rcurveline
          -6 84 rlineto
          -33 -27 -58 -44 -78 hhcurveto
          -76 -55 42 61 -32 hvcurveto
          146 34 60 74 79 vvcurveto
          hintmask 01101000
          82 -63 60 -78 vhcurveto
          endchar
        </CharString>
        <CharString name="dvTTH_N">
          21 -332 56 226 400 callgsubr
          hintmask 1111110011000000
          260 134 22 callsubr
          90 -361 rmoveto
          -104 callsubr
          368 vlineto
          65 33 50 62 93 vvcurveto
          hintmask 1111110101000000
          368 callgsubr
          69 210 -71 callsubr
          -588 -107 callgsubr
          325 -62 hlineto
          1 -9 -10 0 -8 hhcurveto
          -156 -88 -70 -119 -125 104 -91 131 hvcurveto
          hintmask 1111101011000000
          23 25 3 6 23 hvcurveto
          -93 -46 vlineto
          221 callsubr
          hlineto
          101 -237 -100 callgsubr
          endchar
        </CharString>
        <CharString name="dvTTH_TTHA">
          -20 -254 51 261 48 33 50 261 48 52 50 hstemhm
          55 56 167 53 -22 53 78 49 hintmask 1111111010000000
          257 189 rmoveto
          385 callgsubr
          -76 -69 -77 -114 hvcurveto
          183 -239 rmoveto
          -76 -69 -77 -114 385 callgsubr
          vhcurveto
          -109 600 rmoveto
          206 -98 callsubr
          -547 -107 callgsubr
          288 -52 hlineto
          541 callgsubr
          hvcurveto
          hintmask 1111110110000000
          14 13 1 2 13 hvcurveto
          -37 vlineto
          1 -11 -10 0 -10 hhcurveto
          -152 -71 -72 -100 -94 76 -94 137 119 102 81 112 98 -60 43 -67 17 hvcurveto
          59 vlineto
          74 30 53 64 81 vvcurveto
          hintmask 1111111010000000
          113 -79 40 -79 11 vhcurveto
          endchar
        </CharString>
        <CharString name="dvTT_GA">
          -40 83 50 295 51 71 50 hstemhm
          32 54 64 53 114 53 -39 53 hintmask 11111100
          370 550 280 callgsubr
          -86 48 -66 70 -33 hvcurveto
          -88 vlineto
          -94 callgsubr
          113 vlineto
          hintmask 11111010
          -5 20 21 -2 21 hhcurveto
          24 22 3 5 20 hvcurveto
          -308 vlineto
          -104 callsubr
          355 vlineto
          40 20 31 28 19 28 433 callgsubr
          94 83 56 124 hvcurveto
          hintmask 11111100
          31 callgsubr
          endchar
        </CharString>
        <CharString name="dvTT_N">
          -21 -341 56 235 406 callgsubr
          hintmask 1111110010000000
          346 -50 rmoveto
          -175 vlineto
          -104 callsubr
          355 vlineto
          41 20 31 29 19 28 -9 callgsubr
          hintmask 1111110100000000
          31 callgsubr
          90 150 -71 callsubr
          -546 -107 callgsubr
          343 -72 404 callsubr
          hvcurveto
          hintmask 1111101010000000
          23 22 3 4 20 hvcurveto
          -83 -46 vlineto
          -52 -48 -1 -2 -31 hvcurveto
          -45 -3 -29 403 callsubr
          51 -101 callgsubr
          125 -246 -100 callgsubr
          endchar
        </CharString>
        <CharString name="dvT_KH_NA">
          475 55 48 40 50 168 53 -12 396 callgsubr
          39 55 344 45 63 56 232 53 hintmask 1101111110000000
          834 217 callgsubr
          -47 462 callsubr
          439 callgsubr
          64 125 callgsubr
          367 hlineto
          -293 vmoveto
          -44 -32 -52 -20 -44 hhcurveto
          -40 -64 21 76 83 63 29 61 47 35 -17 -21 26 hvcurveto
          198 332 callsubr
          -1042 -107 callgsubr
          415 hlineto
          hintmask 1110111110000000
          18 -38 15 -44 -52 vvcurveto
          -26 -3 -41 -10 -31 vhcurveto
          -14 4 -17 4 -17 2 rrcurveto
          37 -28 -50 49 -89 119 callgsubr
          52 36 -18 -24 24 vhcurveto
          -18 -10 -9 -16 -21 vvcurveto
          -98 141 -110 184 -9 vhcurveto
          -238 -57 364 callgsubr
          15 -33 27 -33 20 -11 rrcurveto
          -1 3 282 callgsubr
        </CharString>
        <CharString name="dvT_N">
          -254 391 callsubr
          70 115 vstem
          285 600 rmoveto
          -310 -107 callgsubr
          310 -98 callsubr
          -96 -325 rmoveto
          -20 -11 -14 -24 15 -23 130 callsubr
          146 110 rcurveline
          -9 57 rlineto
          -125 320 callgsubr
          63 28 102 vhcurveto
          79 hlineto
          endchar
        </CharString>
        <CharString name="dvT_R_KA">
          103 355 52 -37 58 122 50 hstemhm
          278 53 233 43 hintmask 10111000
          331 550 rmoveto
          331 -98 callsubr
          -673 -107 callgsubr
          289 hlineto
          hintmask 01111000
          -198 vlineto
          49 -52 -41 27 -64 hhcurveto
          -50 -38 -17 -20 -22 hvcurveto
          7 -16 16 -29 14 -11 rrcurveto
          18 28 27 17 43 hhcurveto
          50 33 -23 -47 47 hvcurveto
          -224 -133 172 callsubr
          197 128 rlineto
          -239 vlineto
          -104 callsubr
          hintmask 10111000
          288 vlineto
          41 32 47 46 59 hhcurveto
          47 48 -31 -63 -44 -24 -56 -61 -40 hvcurveto
          12 -19 13 -13 20 -14 rrcurveto
          47 37 36 57 71 vvcurveto
          100 -72 67 -81 -50 -42 -25 -28 -31 vhcurveto
          endchar
        </CharString>
        <CharString name="dvT_S_NA">
          424 342 47 -28 53 136 50 hstemhm
          39 55 363 45 57 96 128 53 hintmask 10111010
          783 316 rmoveto
          48 -52 -41 25 -64 148 callgsubr
          297 hlineto
          200 -86 callsubr
          -993 -107 callgsubr
          434 hlineto
          hintmask 01111010
          -50 callsubr
          -17 -10 -21 vhcurveto
          4 -17 -21 3 -26 hhcurveto
          -7 -7 -1 -1 -7 hvcurveto
          32 -30 -46 32 -72 119 callgsubr
          49 34 -16 -21 24 vhcurveto
          -5 -9 -3 -10 -11 vvcurveto
          -23 14 -32 22 -38 vhcurveto
          268 callsubr
          rrcurveto
          hintmask 10111110
          -57 46 -100 102 -56 90 37 11 38 16 46 20 rrcurveto
          22 50 51 27 59 hhcurveto
          49 33 -24 -46 46 hvcurveto
          -191 -99 -21 -11 -16 -20 -51 callsubr
          128 79 rcurveline
          -218 -103 callgsubr
        </CharString>
        <CharString name="dvV_N">
          -213 401 52 97 50 hstemhm
          41 58 -4 96 hintmask 11100000
          328 600 rmoveto
          -353 457 callsubr
          -98 callsubr
          -110 -147 rmoveto
          -89 -88 -50 -107 -83 53 -82 92 -19 hvcurveto
          hintmask 11010000
          -26 -12 -18 195 callgsubr
          206 122 rcurveline
          -14 83 rlineto
          -66 -36 -63 -41 -78 hhcurveto
          hintmask 11100000
          -40 -67 22 92 98 71 37 69 36 30 -13 -13 17 hvcurveto
          15 36 rlineto
          23 -24 -51 19 -44 hhcurveto
          endchar
        </CharString>
        <CharString name="dvY_N">
          -194 133 52 365 50 hstemhm
          102 96 -13 55 hintmask 11010000
          420 185 rmoveto
          -16 73 rlineto
          -42 -23 -63 -31 453 callgsubr
          20 62 54 73 vvcurveto
          47 -29 36 -25 23 vhcurveto
          180 -98 callsubr
          -376 -107 callgsubr
          147 101 callgsubr
          19 -105 63 -82 112 -14 rrcurveto
          hintmask 11100000
          -48 -23 -28 -12 -26 -16 327 callgsubr
        </CharString>
        <CharString name="e">
          200 callgsubr
          324 callsubr
          hintmask 11111000
          110 307 rmoveto
          290 callgsubr
          -23 callgsubr
          hintmask 11110100
          -26 callsubr
          endchar
        </CharString>
        <CharString name="eacute">
          200 callgsubr
          324 callsubr
          hintmask 11111000
          400 635 -91 callsubr
          -94 -222 rmoveto
          290 callgsubr
          -23 callgsubr
          hintmask 11110100
          -26 callsubr
          endchar
        </CharString>
        <CharString name="ebreve">
          200 callgsubr
          29 59 324 callsubr
          hintmask 11111100
          376 665 rmoveto
          238 callsubr
          -35 callgsubr
          -299 -345 rmoveto
          hintmask 11101100
          290 callgsubr
          -23 callgsubr
          hintmask 11101010
          -26 callsubr
          endchar
        </CharString>
        <CharString name="ecaron">
          200 callgsubr
          41 59 0 -20 324 callsubr
          hintmask 11101110
          416 663 -36 callsubr
          hintmask 11110110
          53 callgsubr
          -176 -237 rmoveto
          290 callgsubr
          -23 callgsubr
          hintmask 11101101
          -26 callsubr
          endchar
        </CharString>
        <CharString name="ecircumflex">
          200 callgsubr
          118 59 324 callsubr
          hintmask 11111100
          257 618 -84 callgsubr
          -14 -222 rmoveto
          290 callgsubr
          -23 callgsubr
          hintmask 11111010
          -26 callsubr
          endchar
        </CharString>
        <CharString name="edieresis">
          200 callgsubr
          60 94 hstemhm
          40 62 29 94 64 94 -24 62 -21 10 hintmask 1111111000000000
          335 560 -19 callsubr
          -69 -253 rmoveto
          290 callgsubr
          hintmask 1110100100000000
          -23 callgsubr
          hintmask 1110100010000000
          -26 callsubr
          endchar
        </CharString>
        <CharString name="edotaccent">
          200 callgsubr
          107 86 hstemhm
          40 62 110 86 61 62 -21 10 hintmask 11111110
          255 607 rmoveto
          -25 callgsubr
          -145 -300 rmoveto
          290 callgsubr
          -23 callgsubr
          hintmask 11111101
          -26 callsubr
          endchar
        </CharString>
        <CharString name="egrave">
          200 callgsubr
          324 callsubr
          hintmask 11111000
          189 679 50 callsubr
          -243 -248 rmoveto
          290 callgsubr
          -23 callgsubr
          hintmask 11110100
          -26 callsubr
          endchar
        </CharString>
</ttFont>
